<?xml version="1.0" encoding="utf-8"?>
<!-- Generator: Adobe Illustrator 17.1.0, SVG Export Plug-In . SVG Version: 6.00 Build 0)  -->
<!DOCTYPE svg PUBLIC "-//W3C//DTD SVG 1.1//EN" "http://www.w3.org/Graphics/SVG/1.1/DTD/svg11.dtd">
<svg version="1.1" id="Layer_1" xmlns="http://www.w3.org/2000/svg" xmlns:xlink="http://www.w3.org/1999/xlink" x="0px" y="0px"
	 viewBox="0 0 28.2 28.2" enable-background="new 0 0 28.2 28.2" xml:space="preserve">
<path d="M14.1,28.2C6.3,28.2,0,21.9,0,14.1C0,6.3,6.3,0,14.1,0s14.1,6.3,14.1,14.1C28.2,21.9,21.9,28.2,14.1,28.2L14.1,28.2z
	 M14.1,3.7C8.4,3.7,3.7,8.4,3.7,14.1s4.6,10.3,10.3,10.3s10.3-4.6,10.3-10.3S19.8,3.7,14.1,3.7L14.1,3.7z M22.5,15
	C22.5,15,22.5,15,22.5,15c-0.2,0-0.9,0-1.9,0.1c0,0,0,0,0-0.1h-1.8v-1.9h1.8c-0.5-3.2-3.2-5.6-6.5-5.6c-3.6,0-6.6,2.9-6.6,6.6
	c0,0.3,0,0.7,0.1,1c-0.8,0-1.4,0-1.9,0c0-0.3-0.1-0.6-0.1-1c0-4.7,3.8-8.4,8.4-8.4c4.3,0,7.9,3.3,8.4,7.5h0.1L22.5,15L22.5,15
	L22.5,15z M12.2,17.6c0.1-1.8,1.9-7.3,1.9-7.3s1.7,5.5,1.9,7.3c0.6,0.5,1,1.3,1,2.1c0,1.6-1.3,2.8-2.8,2.8s-2.8-1.3-2.8-2.8
	C11.3,18.9,11.6,18.1,12.2,17.6L12.2,17.6z"/>
<g>
</g>
<g>
</g>
<g>
</g>
<g>
</g>
<g>
</g>
<g>
</g>
<g>
</g>
<g>
</g>
<g>
</g>
<g>
</g>
<g>
</g>
<g>
</g>
<g>
</g>
<g>
</g>
<g>
</g>
</svg>
