<?xml version="1.0" encoding="utf-8"?>
<!-- Generator: Adobe Illustrator 17.1.0, SVG Export Plug-In . SVG Version: 6.00 Build 0)  -->
<!DOCTYPE svg PUBLIC "-//W3C//DTD SVG 1.1//EN" "http://www.w3.org/Graphics/SVG/1.1/DTD/svg11.dtd">
<svg version="1.1" id="Layer_1" xmlns="http://www.w3.org/2000/svg" xmlns:xlink="http://www.w3.org/1999/xlink" x="0px" y="0px"
	 viewBox="0 0 30.9 27" enable-background="new 0 0 30.9 27" xml:space="preserve">
<g>
	<path d="M27.9,26.9c-2.2,0.6-4.4-0.7-5-2.9l-1-3.6c-0.8,0.2-3.3,0.9-6.5,0.9c-3.1,0-5.6-0.6-6.5-0.9L8,24c-0.6,2.2-2.8,3.5-5,2.9
		c-2.2-0.6-3.5-2.8-2.9-5l1.5-5.5C1.2,15.5,1,14.5,1,13.5c0-3.7,3-6.7,6.7-6.7c1.8,0,3.5,0.7,4.7,1.9h1.9c0.3-0.4,1.7-2.9-0.3-3.6
		c-2.2-0.7-4.4-1-5.4-2C7.7,2.1,9.3,0,9.3,0l1.4,0.2c0,0-0.1-0.1-0.8,1.6C9.1,3.5,13,3,15.4,4.4s1.1,4.2,1.1,4.2s-0.1,0-0.2,0.1h2
		c1.2-1.2,2.9-1.9,4.7-1.9c3.7,0,6.7,3,6.7,6.7c0,1-0.2,2-0.6,2.9l1.5,5.5C31.3,24.1,30,26.3,27.9,26.9L27.9,26.9z M11.6,12.5H8.7
		V9.6H6.8v2.9H3.9v1.9h2.9v2.9h1.9v-2.9h2.9V12.5L11.6,12.5z M23.1,10.6c-1.6,0-2.9,1.3-2.9,2.9s1.3,2.9,2.9,2.9
		c1.6,0,2.9-1.3,2.9-2.9S24.7,10.6,23.1,10.6L23.1,10.6z"/>
</g>
<g>
</g>
<g>
</g>
<g>
</g>
<g>
</g>
<g>
</g>
<g>
</g>
<g>
</g>
<g>
</g>
<g>
</g>
<g>
</g>
<g>
</g>
<g>
</g>
<g>
</g>
<g>
</g>
<g>
</g>
<g>
</g>
</svg>
