<?xml version="1.0" encoding="utf-8"?>
<!-- Generator: Adobe Illustrator 17.1.0, SVG Export Plug-In . SVG Version: 6.00 Build 0)  -->
<!DOCTYPE svg PUBLIC "-//W3C//DTD SVG 1.1//EN" "http://www.w3.org/Graphics/SVG/1.1/DTD/svg11.dtd">
<svg version="1.1" id="Layer_1" xmlns="http://www.w3.org/2000/svg" xmlns:xlink="http://www.w3.org/1999/xlink" x="0px" y="0px"
	 viewBox="0 0 27.2 20.3" enable-background="new 0 0 27.2 20.3" xml:space="preserve" width="500px" height="500px">
<g>
	<path fill="#d7d7d7" d="M26.6,0H24c-0.4,0-0.6,0.3-0.6,0.6v1.9H0.6c-0.2,0-0.4,0.1-0.5,0.2C0,3,0,3.2,0,3.4l2.6,10.4c0.1,0.3,0.3,0.5,0.6,0.5h20.1
		v3.2c-0.3,0.1-0.5,0.4-0.7,0.7H5.3c-0.2-0.5-0.7-0.8-1.3-0.8c-0.8,0-1.5,0.7-1.5,1.5c0,0.8,0.7,1.5,1.5,1.5c0.6,0,1.1-0.3,1.3-0.8
		h17.4c0.2,0.5,0.7,0.8,1.3,0.8c0.8,0,1.5-0.7,1.5-1.5c0-0.6-0.3-1.1-0.8-1.3v-3.9V3.2V1.3h1.9c0.4,0,0.6-0.3,0.6-0.6S26.9,0,26.6,0
		z M3.2,10.4c0,0-0.1,0-0.1,0L2.8,9.1h2.4v1.3H3.2z M14.3,7.8V6.5h3.9v1.3H14.3z M11.7,10.4V9.1h3.9v1.3H11.7z M13,6.5v1.3H9.1V6.5
		H13z M19.5,6.5h3.9v1.3h-3.9V6.5z M16.9,5.2V3.9h3.9v1.3H16.9z M15.6,5.2h-3.9V3.9h3.9V5.2z M10.4,5.2H6.5V3.9h3.9V5.2z M7.8,6.5
		v1.3H2.5L2.1,6.5H7.8z M6.5,9.1h3.9v1.3H6.5V9.1z M13,11.7V13H9.1v-1.3H13z M14.3,11.7h3.9V13h-3.9V11.7z M16.9,10.4V9.1h6.5v1.3
		H16.9z M23.3,5.2H22V3.9h1.3V5.2z M5.2,3.9v1.3H1.8L1.5,3.9H5.2z M3.4,11.7h4.4V13h-4L3.4,11.7z M19.5,13v-1.3h3.9V13H19.5z"/>
</g>
<g>
</g>
<g>
</g>
<g>
</g>
<g>
</g>
<g>
</g>
<g>
</g>
<g>
</g>
<g>
</g>
<g>
</g>
<g>
</g>
<g>
</g>
<g>
</g>
<g>
</g>
<g>
</g>
<g>
</g>
<g>
</g>
</svg>
