<?xml version="1.0" encoding="utf-8"?>
<!-- Generator: Adobe Illustrator 17.1.0, SVG Export Plug-In . SVG Version: 6.00 Build 0)  -->
<!DOCTYPE svg PUBLIC "-//W3C//DTD SVG 1.1//EN" "http://www.w3.org/Graphics/SVG/1.1/DTD/svg11.dtd">
<svg version="1.1" id="Layer_1" xmlns="http://www.w3.org/2000/svg" xmlns:xlink="http://www.w3.org/1999/xlink" x="0px" y="0px"
	 viewBox="0 0 24.6 32.9" enable-background="new 0 0 24.6 32.9" xml:space="preserve">
<g>
	<path d="M0,6.4v26.5h24.6V6.4H0z M11.9,26.4c-4,0.1-7.4-3.4-7.4-7.5c0-4.1,3.4-7.5,7.4-7.5c4.1,0,7.6,3.1,7.6,7.4
		C19.4,23.6,16,26.3,11.9,26.4z"/>
	<path d="M12,11.9c-3.8,0-6.9,3.1-6.9,6.9c0,4,3,7.1,7,7.1c3.9,0,7-3.2,6.9-7C19,14.9,15.9,11.9,12,11.9z M11.8,24.2
		c-3,0-5.4-2.4-5.4-5.4c0-2.4,2.3-5.5,5.7-5.3c3.1,0.2,5.2,2.2,5.2,5.4C17.3,22.1,15.2,24.2,11.8,24.2z"/>
	<rect x="0" y="2.9" width="9.3" height="2.9"/>
	<rect x="12.8" y="1.2" width="6.9" height="1.6"/>
	<path d="M0,0v2.3h9.9v3.4h14.7V0H0z M20.1,1.2v1.6v0.4h-0.4h-6.9h-0.4V2.9V1.2V0.8h0.4h6.9h0.4V1.2z"/>
</g>
<g>
</g>
<g>
</g>
<g>
</g>
<g>
</g>
<g>
</g>
<g>
</g>
<g>
</g>
<g>
</g>
<g>
</g>
<g>
</g>
<g>
</g>
<g>
</g>
<g>
</g>
<g>
</g>
<g>
</g>
<g>
</g>
</svg>
