<?xml version="1.0" encoding="utf-8"?>
<!-- Generator: Adobe Illustrator 17.1.0, SVG Export Plug-In . SVG Version: 6.00 Build 0)  -->
<!DOCTYPE svg PUBLIC "-//W3C//DTD SVG 1.1//EN" "http://www.w3.org/Graphics/SVG/1.1/DTD/svg11.dtd">
<svg version="1.1" id="Layer_1" xmlns="http://www.w3.org/2000/svg" xmlns:xlink="http://www.w3.org/1999/xlink" x="0px" y="0px"
	 viewBox="0 0 19.8 28.6" enable-background="new 0 0 19.8 28.6" xml:space="preserve">
<g>
	<path d="M9.9,18.2c4.7,0,8.6-3.9,8.6-8.7H1.3C1.3,14.3,5.2,18.2,9.9,18.2z"/>
	<path d="M19.2,7.5h-1.3c-0.2-2.7-3.7-4.8-8-4.8c-4.3,0-7.8,2.1-8,4.8H0.7C0.3,7.5,0,7.8,0,8.1v0.1c0,0.4,0.3,0.7,0.7,0.7h18.5
		c0.4,0,0.7-0.3,0.7-0.7V8.1C19.8,7.8,19.5,7.5,19.2,7.5z"/>
	<path d="M9.9,0.5c1,0,1.8,0.8,1.8,1.8h0.5c0-1.3-1-2.3-2.3-2.3S7.6,1,7.6,2.3h0.5C8.1,1.3,8.9,0.5,9.9,0.5z"/>
	<path d="M17.1,28.5L17.1,28.5c-0.4,0.2-0.8,0-1-0.4l-3.6-8.9c-0.2-0.4,0-0.8,0.4-1h0c0.4-0.2,0.8,0,1,0.4l3.6,8.9
		C17.7,27.9,17.5,28.4,17.1,28.5z"/>
	<path d="M2.8,28.5L2.8,28.5c-0.4-0.2-0.6-0.6-0.4-1l3.7-8.8c0.2-0.4,0.6-0.6,1-0.4h0c0.4,0.2,0.6,0.6,0.4,1l-3.7,8.8
		C3.6,28.5,3.2,28.7,2.8,28.5z"/>
</g>
<g>
</g>
<g>
</g>
<g>
</g>
<g>
</g>
<g>
</g>
<g>
</g>
<g>
</g>
<g>
</g>
<g>
</g>
<g>
</g>
<g>
</g>
<g>
</g>
<g>
</g>
<g>
</g>
<g>
</g>
</svg>
