<?xml version="1.0" encoding="utf-8"?>
<!-- Generator: Adobe Illustrator 17.1.0, SVG Export Plug-In . SVG Version: 6.00 Build 0)  -->
<!DOCTYPE svg PUBLIC "-//W3C//DTD SVG 1.1//EN" "http://www.w3.org/Graphics/SVG/1.1/DTD/svg11.dtd">
<svg version="1.1" id="Layer_1" xmlns="http://www.w3.org/2000/svg" xmlns:xlink="http://www.w3.org/1999/xlink" x="0px" y="0px"
	 viewBox="0 0 26.8 26.8" enable-background="new 0 0 26.8 26.8" xml:space="preserve" width="500px" height="500px">
<g>
	<path fill="#d7d7d7" d="M0.5,0.4C1-0.1,1.9,0,2.3,0c6,0,6.7,0,6.9,0.1c0.6,0.5,1.1,1,1.7,1.5c0.6,0.6,1.2,1.2,1.8,1.8C13.1,4,13.7,4.5,14.2,5
		c0.2,0.1,0.4,0.3,0.6,0.3c1.4,0,2.9,0,4.3-0.1c1,0,1.8,0.3,2.4,1c1.3,1.3,2.7,2.6,4,4c0.5,0.5,1.3,1,1.3,1.7c0,3.8,0,7.7,0,11.5
		c-0.1,0.3-0.2,0.7-0.4,1c-0.6,1.3-1.7,2-3,2.4c-2.9,0-5.7,0-8.6,0c-0.1,0-0.2-0.1-0.3-0.1c-1.7-0.5-2.9-1.9-3.1-3.7
		c0-0.4,0-0.9,0-1.3c-2.2,0-4.4,0-6.5,0c-2.6,0-3.8-0.8-4.8-3.3C-0.1,18.1,0,11.1,0,2.8C0,1.8-0.1,1,0.5,0.4z M2.2,10.5
		c0,0,0,0.2,0,0.2c0,2.3,0,4.5,0,6.8c0,1.1,0.8,2,1.9,2.1c2.5,0,5,0,7.5,0c1,0,1.9-0.8,1.9-1.6c0-3.5,0-7,0-10.6
		c0-0.7-0.3-1.1-1.1-1.1c-0.6,0-1.3,0-1.9,0c-0.8,0-1.1-0.4-1.1-1.1c0-0.6,0-1.2,0-1.8c0-0.8-0.4-1.2-1.2-1.2c-1.4,0-2.7,0-4.1,0
		c-1,0-1.8,0.6-1.8,1.6C2.2,6.1,2.2,8.3,2.2,10.5z M15.5,18.4c-0.3,1.1-0.9,2-1.8,2.6c-0.1,0.1-0.2,0.2-0.2,0.3c0,0.6-0.1,1.1,0,1.7
		c0.1,1,0.9,1.7,1.9,1.7c0.7,0,1.3,0,2,0c1.8,0,3.6,0,5.3,0c1.1,0,1.9-0.7,1.9-1.6c0-3.5,0-7,0-10.6c0-0.8-0.3-1.1-1.1-1.1
		c-0.6,0-1.3,0-1.9,0c-0.7,0-1.1-0.4-1.1-1.1c0-0.6,0-1.2,0-1.8c0-0.7-0.4-1.2-1-1.2c-1.4,0-2.7,0-4.1,0c0,3.1,0,6.2,0,9.3
		c1.3-1,2.6-2,4-3c0,1.1,0,1.9,0,2.9c1.1,0,2,0,3,0c0,0.7,0,1.3,0,2c-1,0-2,0-3.1,0c0,1,0,1.9,0,2.9C18.1,20.4,16.8,19.4,15.5,18.4z
		"/>
	<path fill="#d7d7d7" d="M12.4,12.4C10.6,13.8,9,15,7.2,16.4c0-1,0-1.9,0-2.9c-1,0-2,0-3,0c0-0.7,0-1.3,0-2.1c1,0,1.9,0,3,0c0-1,0-1.8,0-2.9
		C9,9.8,10.6,11.1,12.4,12.4z"/>
</g>
<g>
</g>
<g>
</g>
<g>
</g>
<g>
</g>
<g>
</g>
<g>
</g>
<g>
</g>
<g>
</g>
<g>
</g>
<g>
</g>
<g>
</g>
<g>
</g>
<g>
</g>
<g>
</g>
<g>
</g>
</svg>
