<?xml version="1.0" encoding="utf-8"?>
<!-- Generator: Adobe Illustrator 17.1.0, SVG Export Plug-In . SVG Version: 6.00 Build 0)  -->
<!DOCTYPE svg PUBLIC "-//W3C//DTD SVG 1.1//EN" "http://www.w3.org/Graphics/SVG/1.1/DTD/svg11.dtd">
<svg version="1.1" id="Layer_1" xmlns="http://www.w3.org/2000/svg" xmlns:xlink="http://www.w3.org/1999/xlink" x="0px" y="0px"
	 viewBox="0 0 33.7 27" enable-background="new 0 0 33.7 27" xml:space="preserve">
<g>
	<path d="M33.7,16.3c0,3.6,0,7.1,0,10.7c-1.6,0-3.2,0-4.7,0c0-0.9,0-1.7,0-2.6c0-1.1-0.3-1.4-1.4-1.4c-7.1,0-14.3,0-21.4,0
		c-1.1,0-1.4,0.4-1.4,1.4c0,0.9,0,1.7,0,2.6c-1.6,0-3.2,0-4.7,0c0-3.6,0-7.1,0-10.7c0-0.1,0.1-0.3,0.1-0.4c0.3-1,0.6-2,0.9-3.1
		c0.1-0.3,0.2-0.7,0.2-1c0-3.2,0-6.4,0-9.6C1.3,0.8,2.1,0,3.6,0c8.8,0,17.7,0,26.5,0c1.5,0,2.3,0.8,2.3,2.3c0,3.2,0,6.4,0,9.6
		c0,0.3,0.1,0.6,0.2,0.9c0.2,0.7,0.5,1.3,0.7,2C33.5,15.3,33.6,15.8,33.7,16.3z M32.4,18.1c-0.1-1-0.2-1.9-0.4-2.8
		c-0.4-2.3-1.8-3.7-3.9-4.5c-2.7-1-5.5-1.2-8.3-1.2c-2.4-0.1-4.8,0-7.2,0.1c-2.3,0.1-4.7,0.4-6.9,1.2c-2.9,1.1-4.8,4.4-4.1,7.3
		C11.7,18.1,22,18.1,32.4,18.1z M6.1,9.1c3.3-0.9,6.6-1,9.9-1.1c0.2-1.3,0.1-1.5-1.1-1.6c-1.6-0.2-3.3-0.3-5-0.3
		c-1.1,0-2.2,0.3-3.4,0.5c-0.2,0-0.5,0.3-0.5,0.5C6.1,7.7,6.1,8.4,6.1,9.1z M27.6,9.1c0-0.5,0-0.8,0-1.2c0-1.3,0-1.3-1.2-1.5
		c-2.6-0.5-5.2-0.4-7.8,0c-1.1,0.2-1.2,0.4-0.9,1.6C21,8.2,24.3,8.3,27.6,9.1z"/>
</g>
<g>
</g>
<g>
</g>
<g>
</g>
<g>
</g>
<g>
</g>
<g>
</g>
<g>
</g>
<g>
</g>
<g>
</g>
<g>
</g>
<g>
</g>
<g>
</g>
<g>
</g>
<g>
</g>
<g>
</g>
<g>
</g>
</svg>
