<?xml version="1.0" encoding="utf-8"?>
<!-- Generator: Adobe Illustrator 17.1.0, SVG Export Plug-In . SVG Version: 6.00 Build 0)  -->
<!DOCTYPE svg PUBLIC "-//W3C//DTD SVG 1.1//EN" "http://www.w3.org/Graphics/SVG/1.1/DTD/svg11.dtd">
<svg version="1.1" id="Layer_1" xmlns="http://www.w3.org/2000/svg" xmlns:xlink="http://www.w3.org/1999/xlink" x="0px" y="0px"
	 viewBox="0 0 14.6 11.5" enable-background="new 0 0 14.6 11.5" xml:space="preserve">
<g>
	<path d="M13.7,11.5c-4.3,0-8.7,0-13,0c0.1-0.1,0.1-0.1,0.2-0.2C3,10.1,5,8.8,7.1,7.6c0.1-0.1,0.3-0.1,0.4,0
		C9.5,8.9,11.6,10.1,13.7,11.5C13.7,11.4,13.7,11.5,13.7,11.5z"/>
	<path d="M0.7,4.4c4.4,0,8.7,0,13.1,0c-0.1,0.1-0.1,0.1-0.2,0.1c-1.1,0.7-2.3,1.4-3.4,2.1C9.7,7,9.2,7.4,8.7,7.7
		c-0.2,0.1-0.3,0.1-0.4,0C8,7.5,7.7,7.4,7.5,7.2c-0.1-0.1-0.3,0-0.4,0C6.8,7.4,6.5,7.6,6.2,7.7c-0.1,0-0.2,0.1-0.3,0
		c-1.7-1-3.3-2.1-5-3.1C0.8,4.6,0.8,4.5,0.7,4.4z"/>
	<path d="M14.6,4.5c0,2.3,0,4.7,0,7.1c-0.1,0-0.2,0-0.3-0.1c-1.8-1.1-3.6-2.2-5.4-3.3c0,0,0,0-0.1-0.1C10.7,6.8,12.6,5.6,14.6,4.5
		C14.6,4.4,14.6,4.4,14.6,4.5z"/>
	<path d="M0,11.5c0-2.4,0-4.7,0-7.1C1.9,5.6,3.8,6.8,5.7,8C3.8,9.2,1.9,10.3,0,11.5z"/>
	<path d="M0.9,3.8C1.6,3.4,2.3,2.9,3,2.5c1.3-0.8,2.6-1.6,3.9-2.3c0.3-0.2,0.5-0.2,0.8,0C8.4,0.6,9.1,1,9.7,1.4
		c0.2,0.1,0.3,0.1,0.5,0.1c0.7-0.2,1.5-0.4,2.2-0.6c0.2-0.1,0.3,0,0.4,0.2c0.1,0.5,0.3,1,0.4,1.5c0.5,0,0.5,0,0.6,0.6
		c0,0.2,0.1,0.5,0.1,0.7c-0.1,0-0.2,0-0.3,0c0-0.3-0.1-0.6-0.1-0.9c-0.4,0-0.8,0.1-1.2,0.1C9.9,3.4,7.6,3.6,5.3,3.9
		c-0.8,0.1-1.6,0-2.4,0C2.2,3.9,1.5,3.9,0.9,3.8C0.9,3.9,0.9,3.9,0.9,3.8z M2.8,3.8C2.8,3.8,2.8,3.8,2.8,3.8c1-0.1,2.1-0.2,3.1-0.3
		C6.9,3.4,8,3.3,9,3.1C10,3,11,3,12,2.6c0-0.1-0.1-0.1-0.3-0.2c-0.1,0-0.3-0.2-0.3-0.3c0-0.1,0.1-0.3,0.1-0.4
		c0.1-0.1,0.2-0.1,0.2-0.2c0.2,0.1,0.4,0.1,0.6,0.2c0,0,0,0.1,0,0.1c-0.1,0-0.3,0.1-0.4,0.1C12,2,12,2.1,12.1,2.1
		c0.1,0.1,0.3,0.1,0.4,0.2c0.1,0.1,0.1,0.3,0.1,0.4c0.1,0,0.2,0,0.3,0c-0.1-0.5-0.3-1-0.4-1.5C9.3,2.1,6.1,2.9,2.8,3.8z"/>
	<path d="M13.2,3.6c-0.2,0-0.3,0-0.5,0.1c0.1,0.1,0.2,0.2,0.4,0.3c-0.3,0-0.5,0-0.7,0c-0.2,0-0.2-0.3-0.1-0.4
		C12.6,3.2,12.9,3.1,13.2,3.6z"/>
</g>
<g>
</g>
<g>
</g>
<g>
</g>
<g>
</g>
<g>
</g>
<g>
</g>
<g>
</g>
<g>
</g>
<g>
</g>
<g>
</g>
<g>
</g>
<g>
</g>
<g>
</g>
<g>
</g>
<g>
</g>
</svg>
