<?xml version="1.0" encoding="utf-8"?>
<!-- Generator: Adobe Illustrator 17.1.0, SVG Export Plug-In . SVG Version: 6.00 Build 0)  -->
<!DOCTYPE svg PUBLIC "-//W3C//DTD SVG 1.1//EN" "http://www.w3.org/Graphics/SVG/1.1/DTD/svg11.dtd">
<svg version="1.1" id="Layer_1" xmlns="http://www.w3.org/2000/svg" xmlns:xlink="http://www.w3.org/1999/xlink" x="0px" y="0px"
	 viewBox="0 0 34.2 27.1" enable-background="new 0 0 34.2 27.1" xml:space="preserve">
<g>
	<path d="M11,19.7c-0.2,2.9-2.6,5.2-5.5,5.2c-3,0-5.5-2.5-5.5-5.5v-4.4h10.5H11h2.3v4.6H11L11,19.7z M12.8,15.6H11v3.5h1.7V15.6
		L12.8,15.6z M0,25.5v-0.6h5.5H11v0.6H0L0,25.5z M2.9,13.3v-2.6h0.6v2.6H2.9L2.9,13.3z M7.6,13.3v-2.6h0.6v2.6H7.6L7.6,13.3z
		 M5.2,13.3V9.8h0.6v3.5H5.2L5.2,13.3z"/>
	<path d="M33.1,26h-1.1v1.1h-2.2V26h-8.7v1.1H19V26h-1.1c-0.6,0-1.1-0.5-1.1-1.1v-8.7h17.4V25C34.2,25.6,33.7,26,33.1,26L33.1,26z
		 M19,17.4h-1.1v3.3H19V17.4L19,17.4z M16.9,1.1c0-0.6,0.5-1.1,1.1-1.1h15.2c0.6,0,1.1,0.5,1.1,1.1v14.1H16.9V1.1L16.9,1.1z
		 M17.9,14.1H19v-3.3h-1.1V14.1L17.9,14.1z"/>
</g>
<g>
</g>
<g>
</g>
<g>
</g>
<g>
</g>
<g>
</g>
<g>
</g>
<g>
</g>
<g>
</g>
<g>
</g>
<g>
</g>
<g>
</g>
<g>
</g>
<g>
</g>
<g>
</g>
<g>
</g>
<g>
</g>
</svg>
