<?xml version="1.0" encoding="utf-8"?>
<!-- Generator: Adobe Illustrator 17.1.0, SVG Export Plug-In . SVG Version: 6.00 Build 0)  -->
<!DOCTYPE svg PUBLIC "-//W3C//DTD SVG 1.1//EN" "http://www.w3.org/Graphics/SVG/1.1/DTD/svg11.dtd">
<svg version="1.1" id="Layer_1" xmlns="http://www.w3.org/2000/svg" xmlns:xlink="http://www.w3.org/1999/xlink" x="0px" y="0px"
	 viewBox="0 0 22.1 12.5" enable-background="new 0 0 22.1 12.5" xml:space="preserve">
<g>
	<path d="M0,0v7.8h22.1V0H0z M21.4,6.8H0.9V6.4h20.4V6.8z M21.4,5.9H0.9V5.5h20.4V5.9z"/>
	<g>
		<path d="M6.9,12.5c-0.6-0.5-1-1.1-0.4-2.3C7,9.3,6.2,8.8,6.2,8.8l0.3-0.4c0.4,0.3,0.9,1,0.4,2c-0.5,0.9-0.3,1.3,0.3,1.8L6.9,12.5z
			"/>
	</g>
	<g>
		<path d="M8.6,12.5c-0.6-0.5-1-1.1-0.4-2.3C8.7,9.3,8,8.8,8,8.8l0.3-0.4c0.4,0.3,0.9,1,0.4,2c-0.5,0.9-0.3,1.3,0.3,1.8L8.6,12.5z"
			/>
	</g>
	<g>
		<path d="M10.4,12.5c-0.6-0.5-1-1.1-0.4-2.3c0.5-0.8-0.3-1.4-0.3-1.4L10,8.4c0.4,0.3,0.9,1,0.4,2c-0.5,0.9-0.3,1.3,0.3,1.8
			L10.4,12.5z"/>
	</g>
	<g>
		<path d="M12.1,12.5c-0.6-0.5-1-1.1-0.4-2.3c0.5-0.8-0.3-1.4-0.3-1.4l0.3-0.4c0.4,0.3,0.9,1,0.4,2c-0.5,0.9-0.3,1.3,0.3,1.8
			L12.1,12.5z"/>
	</g>
	<g>
		<path d="M13.9,12.5c-0.6-0.5-1-1.1-0.4-2.3c0.5-0.8-0.3-1.4-0.3-1.4l0.3-0.4c0.4,0.3,0.9,1,0.4,2c-0.5,0.9-0.3,1.3,0.3,1.8
			L13.9,12.5z"/>
	</g>
	<g>
		<path d="M15.6,12.5c-0.6-0.5-1-1.1-0.4-2.3C15.7,9.3,15,8.8,15,8.8l0.3-0.4c0.4,0.3,0.9,1,0.4,2c-0.5,0.9-0.3,1.3,0.3,1.8
			L15.6,12.5z"/>
	</g>
</g>
<g>
</g>
<g>
</g>
<g>
</g>
<g>
</g>
<g>
</g>
<g>
</g>
<g>
</g>
<g>
</g>
<g>
</g>
<g>
</g>
<g>
</g>
<g>
</g>
<g>
</g>
<g>
</g>
<g>
</g>
<g>
</g>
</svg>
