<?xml version="1.0" encoding="utf-8"?>
<!-- Generator: Adobe Illustrator 18.0.0, SVG Export Plug-In . SVG Version: 6.00 Build 0)  -->
<!DOCTYPE svg PUBLIC "-//W3C//DTD SVG 1.1//EN" "http://www.w3.org/Graphics/SVG/1.1/DTD/svg11.dtd">
<svg version="1.1" id="Layer_1" xmlns="http://www.w3.org/2000/svg" xmlns:xlink="http://www.w3.org/1999/xlink" x="0px" y="0px"
	 viewBox="0 0 29.9 24.3" enable-background="new 0 0 29.9 24.3" xml:space="preserve">
<path d="M27.6,8.8h-1.1c0,0-1.5-4.8-2.1-6.6c-0.6-1.9-1-2.2-2.2-2.2H7.6C6.4,0,5.9,0.6,5.4,2.2C5,3.9,3.3,8.8,3.3,8.8H2.2
	C1,8.8,0,9.8,0,11.1v5.5c0,1.2,1,2.2,2.2,2.2h25.4c1.2,0,2.2-1,2.2-2.2v-5.5C29.9,9.8,28.9,8.8,27.6,8.8z M4.5,15.5
	c-1.2,0-2.2-1-2.2-2.2c0-1.2,1-2.2,2.2-2.2c1.2,0,2.2,1,2.2,2.2C6.7,14.5,5.7,15.5,4.5,15.5z M22.1,16.6H7.7v-1.1h14.4V16.6z
	 M22.1,14.4H7.7v-1.1h14.4V14.4z M22.1,12.2H7.7v-1.1h14.4V12.2z M17.7,8.8c0-1.2,1-2.3,2.2-2.3c1.2,0,2.2,1.1,2.2,2.3
	C22.1,8.9,17.7,8.9,17.7,8.8z M19.9,5.9c-1.5,0-2.7,1.4-2.8,2.9H4.4c0,0,1.8-5.7,2.1-6.6c0.3-1,0.5-1.1,1.1-1.1h6.7v1.1h-0.6
	c-0.3,0-0.6,0.2-0.6,0.6c0,0.3,0.2,0.6,0.6,0.6H16c0.3,0,0.6-0.2,0.6-0.6c0-0.3-0.2-0.6-0.6-0.6h-0.6V1.1h6.7c0.6,0,0.8,0.3,1.1,1.1
	c0.3,0.8,2.1,6.6,2.1,6.6h-2.8C22.6,7.3,21.4,5.9,19.9,5.9z M25.4,15.5c-1.2,0-2.2-1-2.2-2.2c0-1.2,1-2.2,2.2-2.2
	c1.2,0,2.2,1,2.2,2.2C27.6,14.6,26.6,15.5,25.4,15.5z"/>
<path d="M5.5,22.7c0,0.9-0.7,1.7-1.7,1.7c-0.9,0-1.7-0.7-1.7-1.7v-2.8h3.3V22.7L5.5,22.7z"/>
<path d="M27.6,22.7c0,0.9-0.7,1.7-1.7,1.7c-0.9,0-1.7-0.7-1.7-1.7v-2.8h3.3L27.6,22.7L27.6,22.7z"/>
<g>
</g>
<g>
</g>
<g>
</g>
<g>
</g>
<g>
</g>
<g>
</g>
<g>
</g>
<g>
</g>
<g>
</g>
<g>
</g>
<g>
</g>
<g>
</g>
<g>
</g>
<g>
</g>
<g>
</g>
</svg>
