<?xml version="1.0" encoding="utf-8"?>
<!-- Generator: Adobe Illustrator 18.0.0, SVG Export Plug-In . SVG Version: 6.00 Build 0)  -->
<!DOCTYPE svg PUBLIC "-//W3C//DTD SVG 1.1//EN" "http://www.w3.org/Graphics/SVG/1.1/DTD/svg11.dtd">
<svg version="1.1" id="Layer_1" xmlns="http://www.w3.org/2000/svg" xmlns:xlink="http://www.w3.org/1999/xlink" x="0px" y="0px"
	 viewBox="0 0 17.9 17.9" enable-background="new 0 0 17.9 17.9" xml:space="preserve">
<path id="settings_1_" d="M17.2,7.6l-1.8-0.3c-0.1-0.5-0.3-1-0.6-1.5L16,4.4c0.2-0.3,0.2-0.7,0-1l-0.7-0.8c-0.3-0.3-0.7-0.3-1-0.1
	l-1.5,1c-0.7-0.5-1.4-0.8-2.2-1l-0.3-1.8C10.2,0.3,9.9,0,9.5,0H8.4C8,0,7.7,0.3,7.6,0.7L7.3,2.4C6.7,2.6,6,2.9,5.5,3.2L4,2.2
	C3.7,2,3.3,2,3,2.3L2.3,3C2,3.3,2,3.7,2.2,4l1,1.4C2.9,6,2.6,6.7,2.4,7.3L0.7,7.6C0.3,7.7,0,8,0,8.4v1.1c0,0.4,0.3,0.7,0.7,0.8
	l1.8,0.3c0.1,0.5,0.3,1.1,0.6,1.6l-1.1,1.4c-0.2,0.3-0.2,0.7,0,1l0.7,0.8c0.3,0.3,0.7,0.3,1,0.1l1.5-1c0.6,0.4,1.4,0.8,2.2,1
	l0.3,1.8c0.1,0.4,0.4,0.7,0.8,0.7h1.1c0.4,0,0.7-0.3,0.8-0.7l0.3-1.8c0.7-0.2,1.3-0.4,1.9-0.8l1.5,1.1c0.3,0.2,0.7,0.2,1-0.1
	l0.7-0.7c0.3-0.3,0.3-0.7,0.1-1l-1.1-1.5c0.3-0.6,0.6-1.2,0.8-1.9l1.8-0.3c0.4-0.1,0.7-0.4,0.7-0.8V8.4C17.9,8,17.6,7.7,17.2,7.6z
	 M9,12.3c-1.8,0-3.3-1.5-3.3-3.3S7.1,5.6,9,5.6s3.3,1.5,3.3,3.3S10.8,12.3,9,12.3z"/>
<g>
</g>
<g>
</g>
<g>
</g>
<g>
</g>
<g>
</g>
<g>
</g>
<g>
</g>
<g>
</g>
<g>
</g>
<g>
</g>
<g>
</g>
<g>
</g>
<g>
</g>
<g>
</g>
<g>
</g>
</svg>
