<?xml version="1.0" encoding="utf-8"?>
<!-- Generator: Adobe Illustrator 17.1.0, SVG Export Plug-In . SVG Version: 6.00 Build 0)  -->
<!DOCTYPE svg PUBLIC "-//W3C//DTD SVG 1.1//EN" "http://www.w3.org/Graphics/SVG/1.1/DTD/svg11.dtd">
<svg version="1.1" id="Layer_1" xmlns="http://www.w3.org/2000/svg" xmlns:xlink="http://www.w3.org/1999/xlink" x="0px" y="0px"
	 viewBox="0 0 25.8 30.9" enable-background="new 0 0 25.8 30.9" xml:space="preserve">
<g>
	<rect y="26.8" width="25.8" height="4.1"/>
	<path d="M16.5,6c0-0.7-0.6-1.2-1.3-1.2h-4.5C9.9,4.8,9.4,5.3,9.4,6c0,0.1,0,0.1,0,0.2h7C16.4,6.1,16.5,6.1,16.5,6z"/>
	<path d="M10.7,7.2h4.5c0.4,0,0.7-0.1,0.9-0.4H9.7C10,7.1,10.3,7.2,10.7,7.2z"/>
	<g>
		<rect y="0" width="25.8" height="1.8"/>
		<path d="M0,3v23h25.8V3H0z M3.2,3.7C3.6,3.7,4,4.1,4,4.6c0,0.5-0.4,0.9-0.9,0.9S2.3,5.1,2.3,4.6C2.3,4.1,2.7,3.7,3.2,3.7z
			 M24.8,6.8h-8.2c-0.3,0.4-0.8,0.7-1.4,0.7h-4.5c-0.6,0-1.1-0.3-1.4-0.7H1.1V6.2H9C9,6.2,9,6.1,9,6c0-0.8,0.8-1.5,1.7-1.5h4.5
			c0.9,0,1.7,0.7,1.7,1.5c0,0.1,0,0.1,0,0.2h7.9V6.8z"/>
	</g>
</g>
<g>
</g>
<g>
</g>
<g>
</g>
<g>
</g>
<g>
</g>
<g>
</g>
<g>
</g>
<g>
</g>
<g>
</g>
<g>
</g>
<g>
</g>
<g>
</g>
<g>
</g>
<g>
</g>
<g>
</g>
<g>
</g>
</svg>
