<?xml version="1.0" encoding="utf-8"?>
<!-- Generator: Adobe Illustrator 17.1.0, SVG Export Plug-In . SVG Version: 6.00 Build 0)  -->
<!DOCTYPE svg PUBLIC "-//W3C//DTD SVG 1.1//EN" "http://www.w3.org/Graphics/SVG/1.1/DTD/svg11.dtd">
<svg version="1.1" id="Layer_1" xmlns="http://www.w3.org/2000/svg" xmlns:xlink="http://www.w3.org/1999/xlink" x="0px" y="0px"
	 viewBox="0 0 40 40" enable-background="new 0 0 40 40" xml:space="preserve">
<g>
	<path d="M21.1,30l-0.4,0.1c-0.3,0-0.4,0.1-0.6,0.2c-0.2,0.1-0.3,0.3-0.3,0.6c0,0.2,0.1,0.4,0.2,0.5c0.1,0.1,0.3,0.2,0.5,0.2
		c0.2,0,0.5-0.1,0.7-0.2c0.4-0.2,0.6-0.5,0.6-0.9v-0.6c-0.1,0.1-0.2,0.1-0.3,0.1C21.4,30,21.3,30,21.1,30z"/>
	<rect x="16.3" y="13.2" width="3.1" height="1"/>
	<rect x="18.4" y="15.3" width="3.1" height="1"/>
	<rect x="18.4" y="11.2" width="3.1" height="1"/>
	<rect x="20.4" y="13.2" width="3.1" height="1"/>
	<rect x="14.2" y="15.3" width="3.1" height="1"/>
	<rect x="22.5" y="11.2" width="3.1" height="1"/>
	<path d="M20,0C9,0,0,9,0,20c0,11,9,20,20,20s20-9,20-20C40,9,31,0,20,0z M17.7,31.3c-0.5,0.5-1.1,0.7-1.8,0.7
		c-0.7,0-1.2-0.2-1.7-0.6c-0.6-0.5-0.9-1.4-0.9-2.5c0-0.8,0.2-1.5,0.7-2.1c0.5-0.6,1.1-0.9,2-0.9c0.7,0,1.3,0.2,1.7,0.6
		s0.6,0.8,0.7,1.3h-0.8c-0.1-0.4-0.3-0.7-0.5-0.9s-0.6-0.3-1.1-0.3c-0.6,0-1,0.2-1.3,0.6s-0.5,1-0.5,1.8c0,0.7,0.2,1.2,0.5,1.6
		c0.3,0.4,0.8,0.6,1.4,0.6c0.6,0,1-0.2,1.3-0.7c0.2-0.2,0.3-0.5,0.3-0.9h0.8C18.3,30.4,18.1,30.9,17.7,31.3z M23,31.9
		c-0.1,0-0.2,0.1-0.2,0.1s-0.1,0-0.2,0c-0.2,0-0.4-0.1-0.5-0.3c-0.1-0.1-0.1-0.2-0.1-0.4c-0.1,0.2-0.3,0.4-0.6,0.5
		c-0.3,0.1-0.6,0.2-0.9,0.2c-0.4,0-0.7-0.1-1-0.4s-0.4-0.5-0.4-0.9c0-0.4,0.1-0.7,0.4-0.9c0.2-0.2,0.6-0.3,1-0.4l1.1-0.1
		c0.2,0,0.3-0.1,0.3-0.2c0-0.1,0-0.2,0-0.3c0-0.2-0.1-0.4-0.3-0.5s-0.4-0.2-0.7-0.2c-0.4,0-0.6,0.1-0.8,0.3C20,28.6,20,28.8,19.9,29
		h-0.7c0-0.5,0.2-0.9,0.5-1.1c0.3-0.2,0.7-0.3,1.1-0.3c0.5,0,0.9,0.1,1.2,0.3c0.3,0.2,0.5,0.5,0.5,0.9v2.4c0,0.1,0,0.1,0,0.2
		s0.1,0.1,0.2,0.1c0,0,0.1,0,0.1,0s0.1,0,0.1,0V31.9z M25.8,28.4c0,0-0.1,0-0.1,0s-0.1,0-0.1,0c-0.4,0-0.6,0.1-0.8,0.3
		s-0.3,0.5-0.3,0.8v2.4h-0.7v-4.2h0.7v0.7c0.1-0.1,0.2-0.3,0.4-0.5s0.5-0.3,0.7-0.3c0,0,0,0,0.1,0s0.1,0,0.2,0V28.4z M27.9,28.3
		h-0.7V31c0,0.1,0,0.2,0.1,0.3c0.1,0,0.1,0,0.3,0c0,0,0.1,0,0.1,0c0,0,0.1,0,0.1,0v0.6c-0.1,0-0.2,0-0.3,0.1c-0.1,0-0.2,0-0.3,0
		c-0.3,0-0.6-0.1-0.7-0.3s-0.2-0.4-0.2-0.7v-2.8H26v-0.6h0.6v-1.2h0.7v1.2h0.7V28.3z M30.2,9.1h-1.5v1.5v8.2V22
		c0.4,0.2,0.7,0.6,0.7,1c0,0.7-0.5,1.2-1.2,1.2c-0.5,0-0.9-0.3-1-0.7H13.3c-0.2,0.4-0.6,0.7-1,0.7c-0.7,0-1.2-0.5-1.2-1.2
		c0-0.7,0.5-1.2,1.2-1.2c0.5,0,0.9,0.3,1,0.7h13.8c0.1-0.2,0.3-0.4,0.5-0.5v-2.6h-16c-0.2,0-0.4-0.2-0.5-0.4l-2.1-8.2
		c0-0.2,0-0.3,0.1-0.4c0.1-0.1,0.2-0.2,0.4-0.2h18V8.6c0-0.3,0.2-0.5,0.5-0.5h2.1c0.3,0,0.5,0.2,0.5,0.5C30.7,8.9,30.5,9.1,30.2,9.1
		z"/>
	<rect x="26.6" y="11.2" width="1" height="1"/>
	<rect x="22.5" y="15.3" width="5.2" height="1"/>
	<rect x="16.3" y="17.4" width="3.1" height="1"/>
	<rect x="20.4" y="17.4" width="3.1" height="1"/>
	<rect x="24.6" y="17.4" width="3.1" height="1"/>
	<rect x="24.6" y="13.2" width="3.1" height="1"/>
	<path d="M13.2,15.3h-1.9l0.3,1.1c0,0,0.1,0,0.1,0h1.5V15.3z"/>
	<polygon points="13.2,11.2 10.3,11.2 10.5,12.2 13.2,12.2 	"/>
	<polygon points="15.3,13.2 10.8,13.2 11,14.3 15.3,14.3 	"/>
	<rect x="14.2" y="11.2" width="3.1" height="1"/>
	<polygon points="12.1,18.4 15.3,18.4 15.3,17.4 11.8,17.4 	"/>
</g>
<g>
</g>
<g>
</g>
<g>
</g>
<g>
</g>
<g>
</g>
<g>
</g>
<g>
</g>
<g>
</g>
<g>
</g>
<g>
</g>
<g>
</g>
<g>
</g>
<g>
</g>
<g>
</g>
<g>
</g>
<g>
</g>
</svg>
