<?xml version="1.0" encoding="utf-8"?>
<!-- Generator: Adobe Illustrator 18.0.0, SVG Export Plug-In . SVG Version: 6.00 Build 0)  -->
<!DOCTYPE svg PUBLIC "-//W3C//DTD SVG 1.1//EN" "http://www.w3.org/Graphics/SVG/1.1/DTD/svg11.dtd">
<svg version="1.1" id="Layer_1" xmlns="http://www.w3.org/2000/svg" xmlns:xlink="http://www.w3.org/1999/xlink" x="0px" y="0px"
	 viewBox="0 0 17.4 17.4" enable-background="new 0 0 17.4 17.4" xml:space="preserve">
<path d="M14.7,0H16c0.7,0,1.3,0.6,1.3,1.3V16c0,0.7-0.6,1.3-1.3,1.3l0,0H1.3C0.6,17.4,0,16.8,0,16V1.3C0,0.6,0.6,0,1.3,0h1.3 M6.7,0
	h4 M16,4.7H1.3V16H16V4.7L16,4.7z M4.7,8h-2V6h2V8L4.7,8z M4.7,11.4h-2v-2h2V11.4L4.7,11.4z M4.7,14.7h-2v-2h2V14.7L4.7,14.7z M8,8
	H6V6h2V8L8,8z M8,11.4H6v-2h2V11.4L8,11.4z M8,14.7H6v-2h2V14.7L8,14.7z M11.4,8h-2V6h2V8L11.4,8z M11.4,11.4h-2v-2h2V11.4
	L11.4,11.4z M11.4,14.7h-2v-2h2V14.7L11.4,14.7z M14.7,8h-2V6h2V8L14.7,8z M14.7,11.4h-2v-2h2V11.4L14.7,11.4z M14.7,14.7h-2v-2h2
	V14.7L14.7,14.7z"/>
<g>
</g>
<g>
</g>
<g>
</g>
<g>
</g>
<g>
</g>
<g>
</g>
<g>
</g>
<g>
</g>
<g>
</g>
<g>
</g>
<g>
</g>
<g>
</g>
<g>
</g>
<g>
</g>
<g>
</g>
</svg>
