<?xml version="1.0" encoding="utf-8"?>
<!-- Generator: Adobe Illustrator 17.1.0, SVG Export Plug-In . SVG Version: 6.00 Build 0)  -->
<!DOCTYPE svg PUBLIC "-//W3C//DTD SVG 1.1//EN" "http://www.w3.org/Graphics/SVG/1.1/DTD/svg11.dtd">
<svg version="1.1" id="Layer_1" xmlns="http://www.w3.org/2000/svg" xmlns:xlink="http://www.w3.org/1999/xlink" x="0px" y="0px"
	 viewBox="0 0 27 27.9" enable-background="new 0 0 27 27.9" xml:space="preserve">
<g>
	<path d="M27,7.9C27,3.6,23.4,0,19,0H7.9C3.6,0,0,3.6,0,7.9V20c0,4.4,3.6,7.9,7.9,7.9H19c4.4,0,7.9-3.6,7.9-7.9V7.9z M13.5,17.3h1
		H16h1.5c1.1,0,2,0.8,2,1.9c0,1.1-0.9,1.9-2,1.9H16h-1.5h-1c-3.2,0-5.8-2.4-5.8-5.6V9.7v-1v-1c0-1.1,0.9-2,1.9-2
		c1.1,0,1.9,0.9,1.9,2v1v0.9h5.9c1.1,0,2,0.8,2,1.9c0,1.1-0.9,1.9-2,1.9h-5.9v2.1C11.6,16.7,12.5,17.3,13.5,17.3z"/>
</g>
<g>
</g>
<g>
</g>
<g>
</g>
<g>
</g>
<g>
</g>
<g>
</g>
<g>
</g>
<g>
</g>
<g>
</g>
<g>
</g>
<g>
</g>
<g>
</g>
<g>
</g>
<g>
</g>
<g>
</g>
<g>
</g>
</svg>
