<?xml version="1.0" encoding="utf-8"?>
<!-- Generator: Adobe Illustrator 17.1.0, SVG Export Plug-In . SVG Version: 6.00 Build 0)  -->
<!DOCTYPE svg PUBLIC "-//W3C//DTD SVG 1.1//EN" "http://www.w3.org/Graphics/SVG/1.1/DTD/svg11.dtd">
<svg version="1.1" id="Layer_1" xmlns="http://www.w3.org/2000/svg" xmlns:xlink="http://www.w3.org/1999/xlink" x="0px" y="0px"
	 viewBox="0 0 13.3 10.8" enable-background="new 0 0 13.3 10.8" xml:space="preserve">
<path d="M13.3,5.8l-1.7-3.3H9.1V0.8C9.1,0.4,8.7,0,8.3,0H0.8C0.4,0,0,0.4,0,0.8v6.6l0.8,0.8h1.1C1.7,8.5,1.7,8.8,1.7,9.1
	c0,0.9,0.7,1.7,1.7,1.7S5,10,5,9.1c0-0.3-0.1-0.6-0.2-0.8h4.6C9.2,8.5,9.1,8.8,9.1,9.1c0,0.9,0.7,1.7,1.7,1.7s1.7-0.7,1.7-1.7
	c0-0.3-0.1-0.6-0.2-0.8h1.1V5.8z M9.1,5.8V3.7h1.7l1,2.1H9.1z"/>
<g>
</g>
<g>
</g>
<g>
</g>
<g>
</g>
<g>
</g>
<g>
</g>
<g>
</g>
<g>
</g>
<g>
</g>
<g>
</g>
<g>
</g>
<g>
</g>
<g>
</g>
<g>
</g>
<g>
</g>
</svg>
