<?xml version="1.0" encoding="utf-8"?>
<!-- Generator: Adobe Illustrator 17.1.0, SVG Export Plug-In . SVG Version: 6.00 Build 0)  -->
<!DOCTYPE svg PUBLIC "-//W3C//DTD SVG 1.1//EN" "http://www.w3.org/Graphics/SVG/1.1/DTD/svg11.dtd">
<svg version="1.1" id="Layer_1" xmlns="http://www.w3.org/2000/svg" xmlns:xlink="http://www.w3.org/1999/xlink" x="0px" y="0px"
	 viewBox="0 0 27 27.9" enable-background="new 0 0 27 27.9" xml:space="preserve">
<g>
	<path d="M27,7.9C27,3.6,23.4,0,19,0H7.9C3.6,0,0,3.6,0,7.9V20c0,4.4,3.6,7.9,7.9,7.9H19c4.4,0,7.9-3.6,7.9-7.9V7.9z M19.7,12
		c-0.1,0.4-0.1,0.9-0.3,1.3c-0.3,0.8-0.6,1.6-1.1,2.2c-0.6,0.9-1.6,1.4-2.8,1.7c-1.1,0.3-2,0-2.6-0.4c-0.2-0.1-0.4-0.4-0.5-0.4
		c0,0,0,0,0,0c0,0-0.2,0.8-0.3,1.1c-0.2,0.5-0.2,1-0.4,1.6c-0.2,0.6-0.5,1.1-0.8,1.5c-0.2,0.3-0.6,1.1-0.9,1.1c0-0.1,0-0.1-0.1-0.2
		c-0.1-0.2-0.1-0.4-0.2-0.6c-0.1-0.3-0.2-1-0.2-1.3c0-0.2,0-0.4,0-0.5c0-0.4,0.2-0.8,0.3-1.1c0.2-0.8,0.4-1.6,0.6-2.4
		c0.2-0.8,0.4-1.6,0.6-2.4c0-0.2-0.2-0.7-0.2-0.9c-0.2-0.6,0-1.4,0.2-1.9c0.2-0.6,0.9-1.4,1.8-1.2c0.7,0.2,1.2,0.9,0.9,1.9
		c-0.3,1-0.6,1.9-0.8,2.9c-0.1,0.3,0,0.5,0.1,0.7c0.2,0.6,0.9,1.1,1.7,0.9c1.3-0.3,1.9-1.5,2.3-2.7c0.1-0.3,0.1-0.7,0.2-1
		c0.2-0.8,0.1-2-0.2-2.6c-0.4-1-1.2-1.6-2.2-2c-0.3-0.1-0.6-0.1-0.9-0.2c-0.5-0.1-1.4,0.1-1.7,0.2C10.9,7.8,10,8.5,9.5,9.9
		c-0.2,0.5-0.3,0.9-0.3,1.6c0,0.1,0,0.2,0,0.2c0.1,0.6,0.1,1,0.4,1.4c0.1,0.2,0.4,0.4,0.4,0.6c0,0.2-0.1,0.4-0.1,0.5
		c-0.1,0.2,0,0.4-0.1,0.6c-0.2,0.3-0.6,0.1-0.8-0.1c-1-0.6-1.9-2.5-1.4-4.3c0.1-0.3,0.1-0.5,0.2-0.8c0.6-1.6,1.6-2.5,2.9-3.3
		C11,6,11.7,5.8,12.3,5.7c0.3,0,0.7-0.1,1-0.1c3.1,0,5.1,1.2,6,3.3C19.6,9.6,19.9,10.9,19.7,12z"/>
</g>
<g>
</g>
<g>
</g>
<g>
</g>
<g>
</g>
<g>
</g>
<g>
</g>
<g>
</g>
<g>
</g>
<g>
</g>
<g>
</g>
<g>
</g>
<g>
</g>
<g>
</g>
<g>
</g>
<g>
</g>
<g>
</g>
</svg>
