<?xml version="1.0" encoding="utf-8"?>
<!-- Generator: Adobe Illustrator 17.1.0, SVG Export Plug-In . SVG Version: 6.00 Build 0)  -->
<!DOCTYPE svg PUBLIC "-//W3C//DTD SVG 1.1//EN" "http://www.w3.org/Graphics/SVG/1.1/DTD/svg11.dtd">
<svg version="1.1" id="Layer_1" xmlns="http://www.w3.org/2000/svg" xmlns:xlink="http://www.w3.org/1999/xlink" x="0px" y="0px"
	 viewBox="0 0 29.2 34.1" enable-background="new 0 0 29.2 34.1" xml:space="preserve">
<g>
	<path d="M14.2,0c0.3,0,0.6,0,0.9,0c0.4,0,0.8,0.1,1.2,0.1c2.9,0.4,5.2,1.8,7.1,4.1c1.7,2.1,2.4,4.6,2.4,7.3c0,4.4,0,8.9,0,13.3
		c0,0.4,0,0.8,0,1.3c-0.2-0.1-0.3-0.2-0.4-0.2c-2-1.2-4-2.3-5.9-3.5c-0.2-0.1-0.4-0.1-0.6,0c-2.8,1.5-5.5,1.5-8.3,0
		c-0.2-0.1-0.3-0.1-0.5,0c-2,1.2-4,2.4-6,3.5c-0.1,0.1-0.2,0.1-0.3,0.2c0-0.2,0-0.3,0-0.4c0-4.9,0-9.7,0-14.6c0-1.2,0.2-2.3,0.5-3.4
		C4.9,5.4,6.3,3.5,8.4,2c1.3-0.9,2.8-1.5,4.4-1.8C13.2,0.1,13.7,0.1,14.2,0z M21.7,15.8C21.7,15.8,21.7,15.8,21.7,15.8
		c-0.1,0.1-0.2,0.2-0.2,0.2c-1.2,1.7-2.8,2.9-4.8,3.4c-0.2,0.1-0.3,0.2-0.4,0.3c-0.3,0.8-1.1,1.3-2,1.2c-0.8-0.1-1.5-0.8-1.6-1.6
		c-0.1-0.9,0.4-1.7,1.1-2c0.8-0.3,1.7-0.1,2.2,0.7c0.1,0.2,0.2,0.2,0.5,0.2c1.7-0.5,3.1-1.6,4.1-3.1c0.4-0.6,0.7-1.3,0.9-2
		c-0.1,0-0.1-0.1-0.2-0.1c-2.1-0.6-4-1.6-5.5-3.1c-0.2-0.2-0.2-0.3-0.1-0.5c0.3-0.5,0.6-1,0.8-1.5c0.2-0.3,0-0.7-0.3-0.9
		c-0.3-0.2-0.7-0.1-0.9,0.3c-0.1,0.2-0.2,0.3-0.3,0.5c-1.4,2.7-3.6,4.1-6.7,4.3c-0.3,0-0.6,0-1,0c0,0.5,0,0.9,0,1.3
		c0,1.1,0,2.1,0.2,3.2c0.7,3.8,4.4,6.3,8.2,5.6C18.9,21.7,21.5,19,21.7,15.8z"/>
	<path d="M0,32.6c0.1-0.4,0.2-0.8,0.4-1.2C0.7,30.6,1.3,30,2,29.5c2.1-1.2,4.2-2.5,6.3-3.7c0.2-0.1,0.3-0.1,0.4,0
		c1.9,1.4,3.8,2.7,5.6,4.1c0.2,0.2,0.4,0.2,0.6,0c1.9-1.4,3.7-2.7,5.6-4c0.2-0.1,0.3-0.1,0.5,0c2,1.2,4.1,2.4,6.1,3.6
		c1,0.6,1.7,1.4,1.9,2.5c0.1,0.6,0.1,1.3,0.1,2c-0.2,0-0.4,0-0.5,0c-9.4,0-18.7,0-28.1,0c-0.4,0-0.5-0.1-0.5-0.4
		c0-0.1-0.1-0.2-0.1-0.3C0,33.1,0,32.8,0,32.6z"/>
</g>
<g>
</g>
<g>
</g>
<g>
</g>
<g>
</g>
<g>
</g>
<g>
</g>
<g>
</g>
<g>
</g>
<g>
</g>
<g>
</g>
<g>
</g>
<g>
</g>
<g>
</g>
<g>
</g>
<g>
</g>
<g>
</g>
</svg>
