<?xml version="1.0" encoding="utf-8"?>
<!-- Generator: Adobe Illustrator 17.1.0, SVG Export Plug-In . SVG Version: 6.00 Build 0)  -->
<!DOCTYPE svg PUBLIC "-//W3C//DTD SVG 1.1//EN" "http://www.w3.org/Graphics/SVG/1.1/DTD/svg11.dtd">
<svg version="1.1" id="Layer_1" xmlns="http://www.w3.org/2000/svg" xmlns:xlink="http://www.w3.org/1999/xlink" x="0px" y="0px"
	 viewBox="0 0 11.2 11.2" enable-background="new 0 0 11.2 11.2" xml:space="preserve">
<path d="M5.6,0C5.6,0,5.6,0,5.6,0C5.6,0,5.6,0,5.6,0C5.6,0,5.6,0,5.6,0C2.5,0,0,2.5,0,5.6c0,3.1,2.5,5.6,5.6,5.6c0,0,0,0,0,0
	c0,0,0,0,0,0c0,0,0,0,0,0c3.1,0,5.6-2.5,5.6-5.6C11.2,2.5,8.7,0,5.6,0L5.6,0z M5.8,3.4c0.6,0,1.2-0.1,1.7-0.2
	c0.2,0.7,0.3,1.4,0.3,2.3h-2L5.8,3.4L5.8,3.4z M5.8,2.9V0.5c0.6,0.2,1.2,1,1.6,2.2C6.9,2.8,6.4,2.9,5.8,2.9L5.8,2.9z M5.4,0.5v2.4
	c-0.6,0-1.1-0.1-1.6-0.2C4.2,1.4,4.8,0.6,5.4,0.5L5.4,0.5z M5.4,3.4v2h-2c0-0.8,0.1-1.6,0.3-2.3C4.2,3.3,4.8,3.3,5.4,3.4L5.4,3.4z
	 M2.9,5.4H0.5c0-1.2,0.5-2.2,1.2-3.1c0.5,0.3,1,0.5,1.6,0.7C3,3.7,2.9,4.5,2.9,5.4L2.9,5.4z M2.9,5.8c0,0.9,0.1,1.7,0.3,2.4
	C2.7,8.4,2.1,8.6,1.6,8.9C0.9,8.1,0.5,7,0.5,5.8H2.9L2.9,5.8z M3.4,5.8h2v2C4.8,7.9,4.2,8,3.6,8.1C3.5,7.4,3.4,6.7,3.4,5.8L3.4,5.8z
	 M5.4,8.3v2.4c-0.6-0.2-1.2-1-1.6-2.2C4.3,8.4,4.8,8.3,5.4,8.3L5.4,8.3z M5.8,10.8V8.3c0.6,0,1.1,0.1,1.6,0.2
	C7.1,9.8,6.4,10.6,5.8,10.8L5.8,10.8z M5.8,7.9v-2h2c0,0.8-0.1,1.6-0.3,2.3C7,8,6.4,7.9,5.8,7.9L5.8,7.9z M8.3,5.8h2.5
	c0,1.2-0.5,2.2-1.2,3.1C9.1,8.6,8.6,8.4,8,8.2C8.2,7.5,8.3,6.7,8.3,5.8L8.3,5.8z M8.3,5.4C8.3,4.5,8.2,3.7,8,3
	c0.6-0.2,1.1-0.4,1.6-0.7c0.7,0.8,1.1,1.9,1.2,3.1L8.3,5.4L8.3,5.4z M9.3,2C8.9,2.2,8.4,2.4,7.9,2.6C7.6,1.7,7.3,1,6.8,0.6
	C7.8,0.8,8.6,1.3,9.3,2L9.3,2z M4.4,0.6C4,1,3.6,1.7,3.3,2.6C2.8,2.4,2.4,2.2,1.9,2C2.6,1.3,3.4,0.8,4.4,0.6L4.4,0.6z M1.9,9.2
	C2.4,9,2.8,8.8,3.3,8.7c0.3,0.8,0.6,1.5,1.1,2C3.4,10.4,2.6,9.9,1.9,9.2L1.9,9.2z M6.8,10.6c0.4-0.5,0.8-1.1,1.1-2
	c0.5,0.1,1,0.3,1.4,0.6C8.6,9.9,7.8,10.4,6.8,10.6L6.8,10.6z"/>
<g>
</g>
<g>
</g>
<g>
</g>
<g>
</g>
<g>
</g>
<g>
</g>
<g>
</g>
<g>
</g>
<g>
</g>
<g>
</g>
<g>
</g>
<g>
</g>
<g>
</g>
<g>
</g>
<g>
</g>
</svg>
