<?xml version="1.0" encoding="utf-8"?>
<!-- Generator: Adobe Illustrator 17.1.0, SVG Export Plug-In . SVG Version: 6.00 Build 0)  -->
<!DOCTYPE svg PUBLIC "-//W3C//DTD SVG 1.1//EN" "http://www.w3.org/Graphics/SVG/1.1/DTD/svg11.dtd">
<svg version="1.1" id="Layer_1" xmlns="http://www.w3.org/2000/svg" xmlns:xlink="http://www.w3.org/1999/xlink" x="0px" y="0px"
	 viewBox="0 0 30 28" enable-background="new 0 0 30 28" xml:space="preserve">
<g>
	<g id="Rounded_Rectangle_2_2_">
		<g>
			<path d="M30,0.6C30,0.3,29.7,0,29.4,0H0.6C0.3,0,0,0.3,0,0.6v3.7C0,4.7,0.3,5,0.6,5h28.7C29.7,5,30,4.7,30,4.4V0.6z M30,11.6
				c0-0.3-0.3-0.6-0.6-0.6H0.6C0.3,11,0,11.3,0,11.6v3.7C0,15.7,0.3,16,0.6,16h28.7c0.3,0,0.6-0.3,0.6-0.6V11.6z M30,23.6
				c0-0.3-0.3-0.6-0.6-0.6H0.6C0.3,23,0,23.3,0,23.6v3.7C0,27.7,0.3,28,0.6,28h28.7c0.3,0,0.6-0.3,0.6-0.6V23.6z"/>
		</g>
	</g>
</g>
<g>
</g>
<g>
</g>
<g>
</g>
<g>
</g>
<g>
</g>
<g>
</g>
<g>
</g>
<g>
</g>
<g>
</g>
<g>
</g>
<g>
</g>
<g>
</g>
<g>
</g>
<g>
</g>
<g>
</g>
<g>
</g>
</svg>
