<?xml version="1.0" encoding="utf-8"?>
<!-- Generator: Adobe Illustrator 17.1.0, SVG Export Plug-In . SVG Version: 6.00 Build 0)  -->
<!DOCTYPE svg PUBLIC "-//W3C//DTD SVG 1.1//EN" "http://www.w3.org/Graphics/SVG/1.1/DTD/svg11.dtd">
<svg version="1.1" id="Layer_1" xmlns="http://www.w3.org/2000/svg" xmlns:xlink="http://www.w3.org/1999/xlink" x="0px" y="0px"
	 viewBox="0 0 33.3 29.2" enable-background="new 0 0 33.3 29.2" xml:space="preserve">
<path d="M14.6,2.1V1.6C14.6,0.7,13.9,0,13,0H7.8C7,0,6.3,0.7,6.3,1.6v0.5H0v4.2h6.3v0.5c0,0.9,0.7,1.6,1.6,1.6H13
	c0.9,0,1.6-0.7,1.6-1.6V6.3h18.8V2.1H14.6z M8.3,6.3V2.1h4.2v4.2H8.3z M27.1,12c0-0.9-0.7-1.6-1.6-1.6h-5.2c-0.9,0-1.6,0.7-1.6,1.6
	v0.5H0v4.2h18.8v0.5c0,0.9,0.7,1.6,1.6,1.6h5.2c0.9,0,1.6-0.7,1.6-1.6v-0.5h6.3v-4.2h-6.3V12z M20.8,16.7v-4.2H25v4.2H20.8z
	 M14.6,22.4c0-0.9-0.7-1.6-1.6-1.6H7.8c-0.9,0-1.6,0.7-1.6,1.6v0.5H0v4.2h6.3v0.5c0,0.9,0.7,1.6,1.6,1.6H13c0.9,0,1.6-0.7,1.6-1.6
	v-0.5h18.8v-4.2H14.6V22.4z M8.3,27.1v-4.2h4.2v4.2H8.3z"/>
<g>
</g>
<g>
</g>
<g>
</g>
<g>
</g>
<g>
</g>
<g>
</g>
<g>
</g>
<g>
</g>
<g>
</g>
<g>
</g>
<g>
</g>
<g>
</g>
<g>
</g>
<g>
</g>
<g>
</g>
</svg>
