<?xml version="1.0" encoding="utf-8"?>
<!-- Generator: Adobe Illustrator 17.1.0, SVG Export Plug-In . SVG Version: 6.00 Build 0)  -->
<!DOCTYPE svg PUBLIC "-//W3C//DTD SVG 1.1//EN" "http://www.w3.org/Graphics/SVG/1.1/DTD/svg11.dtd">
<svg version="1.1" id="Layer_1" xmlns="http://www.w3.org/2000/svg" xmlns:xlink="http://www.w3.org/1999/xlink" x="0px" y="0px"
	 viewBox="0 0 44.5 29.6" enable-background="new 0 0 44.5 29.6" xml:space="preserve">
<g>
	<path d="M42.8,5.8H1.6H0V4.9V2.5C0,1.1,1.1,0,2.5,0H42c1.4,0,2.5,1.1,2.5,2.5v2.5v0.8H42.8L42.8,5.8z M42,29.6H2.5
		c-1.4,0-2.5-1.1-2.5-2.5V11.5v-0.8h1.6h41.2h1.6v0.8v15.6C44.5,28.5,43.4,29.6,42,29.6L42,29.6z M14.8,18.1H4.9v1.6h9.9V18.1
		L14.8,18.1z M21.4,23.1H4.9v1.6h16.5V23.1L21.4,23.1z M39.5,23c0-0.9-0.7-1.6-1.6-1.6h-3.3c-0.9,0-1.6,0.7-1.6,1.6v0.1
		c0,0.9,0.7,1.6,1.6,1.6h3.3C38.8,24.7,39.5,24,39.5,23L39.5,23L39.5,23z"/>
</g>
<g>
</g>
<g>
</g>
<g>
</g>
<g>
</g>
<g>
</g>
<g>
</g>
<g>
</g>
<g>
</g>
<g>
</g>
<g>
</g>
<g>
</g>
<g>
</g>
<g>
</g>
<g>
</g>
<g>
</g>
<g>
</g>
</svg>
