<?xml version="1.0" encoding="utf-8"?>
<!-- Generator: Adobe Illustrator 17.1.0, SVG Export Plug-In . SVG Version: 6.00 Build 0)  -->
<!DOCTYPE svg PUBLIC "-//W3C//DTD SVG 1.1//EN" "http://www.w3.org/Graphics/SVG/1.1/DTD/svg11.dtd">
<svg version="1.1" id="Layer_1" xmlns="http://www.w3.org/2000/svg" xmlns:xlink="http://www.w3.org/1999/xlink" x="0px" y="0px"
	 viewBox="0 0 46.4 33.1" enable-background="new 0 0 46.4 33.1" xml:space="preserve">
<path d="M46.4,0v30.9c-0.2,0-0.4,0-0.5,0c-2.8,0.1-5.6,0.1-8.4,0.3c-4,0.2-8,0.8-11.8,1.9c0,0-0.1,0-0.1,0c-1.6,0-3.2,0-4.7,0
	c-3.6-1-7.3-1.5-11.1-1.8c-3.1-0.3-6.1-0.3-9.2-0.3c-0.2,0-0.3,0-0.5,0V0c0.1,0,0.2,0,0.4,0c5.3-0.1,10.5,0.5,15.6,1.9
	c2.5,0.7,4.9,1.6,7,2.9c0.2,0.1,0.3,0.2,0.6,0c2.9-1.8,6.1-2.8,9.6-3.6c4.2-0.9,8.6-1.3,13-1.3C46.2,0,46.3,0,46.4,0 M3.9,3.1v24.7
	c5.9,0.1,11.7,0.7,17.3,2.1c0-0.1,0-0.2,0-0.3c0-7.2,0-14.3,0-21.5c0-0.2-0.1-0.4-0.3-0.5c-1.5-1-3.2-1.8-5-2.3
	c-3.1-1-6.4-1.6-9.7-1.9C5.5,3.2,4.7,3.2,3.9,3.1 M42.5,27.8V3.2c-0.2,0-0.4,0-0.6,0c-3.2,0.2-6.4,0.7-9.5,1.5
	c-2.5,0.7-4.8,1.5-6.9,2.8c-0.3,0.2-0.4,0.4-0.4,0.7c0,7.1,0,14.2,0,21.3c0,0.1,0,0.3,0,0.4C30.8,28.5,36.6,28,42.5,27.8"/>
<g>
</g>
<g>
</g>
<g>
</g>
<g>
</g>
<g>
</g>
<g>
</g>
<g>
</g>
<g>
</g>
<g>
</g>
<g>
</g>
<g>
</g>
<g>
</g>
<g>
</g>
<g>
</g>
<g>
</g>
<g>
</g>
</svg>
