<?xml version="1.0" encoding="utf-8"?>
<!-- Generator: Adobe Illustrator 17.1.0, SVG Export Plug-In . SVG Version: 6.00 Build 0)  -->
<!DOCTYPE svg PUBLIC "-//W3C//DTD SVG 1.1//EN" "http://www.w3.org/Graphics/SVG/1.1/DTD/svg11.dtd">
<svg version="1.1" id="Layer_1" xmlns="http://www.w3.org/2000/svg" xmlns:xlink="http://www.w3.org/1999/xlink" x="0px" y="0px"
	 viewBox="0 0 33.5 20.9" enable-background="new 0 0 33.5 20.9" xml:space="preserve" width="500px" height="500px">
<g>
	<path fill="#d7d7d7" d="M16.7,20.9C10.4,20.9,0,13.6,0,10.5C0,7.3,10.4,0,16.7,0c6.4,0,16.7,7.3,16.7,10.5C33.5,13.6,23.1,20.9,16.7,20.9
		L16.7,20.9z M16.7,3.1c-4,0-7.3,3.3-7.3,7.3s3.3,7.3,7.3,7.3s7.3-3.3,7.3-7.3C24.1,6.4,20.8,3.1,16.7,3.1L16.7,3.1z M16.7,15.7
		c-2.9,0-5.2-2.3-5.2-5.2s2.3-5.2,5.2-5.2c2.9,0,5.2,2.3,5.2,5.2S19.6,15.7,16.7,15.7L16.7,15.7z"/>
</g>
<g>
</g>
<g>
</g>
<g>
</g>
<g>
</g>
<g>
</g>
<g>
</g>
<g>
</g>
<g>
</g>
<g>
</g>
<g>
</g>
<g>
</g>
<g>
</g>
<g>
</g>
<g>
</g>
<g>
</g>
<g>
</g>
</svg>
