<?xml version="1.0" encoding="utf-8"?>
<!-- Generator: Adobe Illustrator 17.1.0, SVG Export Plug-In . SVG Version: 6.00 Build 0)  -->
<!DOCTYPE svg PUBLIC "-//W3C//DTD SVG 1.1//EN" "http://www.w3.org/Graphics/SVG/1.1/DTD/svg11.dtd">
<svg version="1.1" id="Layer_1" xmlns="http://www.w3.org/2000/svg" xmlns:xlink="http://www.w3.org/1999/xlink" x="0px" y="0px"
	 viewBox="0 0 19.7 19.7" enable-background="new 0 0 19.7 19.7" xml:space="preserve">
<path d="M11.8,5.2H7.9C7.5,5.2,7.2,5,7.2,4.6V0.7C7.2,0.3,7.5,0,7.9,0h3.9c0.4,0,0.7,0.3,0.7,0.7v3.9C12.5,5,12.2,5.2,11.8,5.2
	L11.8,5.2z M19,5.2h-3.9c-0.4,0-0.7-0.3-0.7-0.7V0.7c0-0.4,0.3-0.7,0.7-0.7H19c0.4,0,0.7,0.3,0.7,0.7v3.9C19.7,5,19.4,5.2,19,5.2
	L19,5.2z M4.6,5.2H0.7C0.3,5.2,0,5,0,4.6V0.7C0,0.3,0.3,0,0.7,0h3.9C5,0,5.2,0.3,5.2,0.7v3.9C5.2,5,5,5.2,4.6,5.2L4.6,5.2z
	 M11.8,12.5H7.9c-0.4,0-0.7-0.3-0.7-0.7V7.9c0-0.4,0.3-0.7,0.7-0.7h3.9c0.4,0,0.7,0.3,0.7,0.7v3.9C12.5,12.2,12.2,12.5,11.8,12.5
	L11.8,12.5z M19,12.5h-3.9c-0.4,0-0.7-0.3-0.7-0.7V7.9c0-0.4,0.3-0.7,0.7-0.7H19c0.4,0,0.7,0.3,0.7,0.7v3.9
	C19.7,12.2,19.4,12.5,19,12.5L19,12.5z M4.6,12.5H0.7c-0.4,0-0.7-0.3-0.7-0.7V7.9c0-0.4,0.3-0.7,0.7-0.7h3.9c0.4,0,0.7,0.3,0.7,0.7
	v3.9C5.2,12.2,5,12.5,4.6,12.5L4.6,12.5z M11.8,19.7H7.9c-0.4,0-0.7-0.3-0.7-0.7v-3.9c0-0.4,0.3-0.7,0.7-0.7h3.9
	c0.4,0,0.7,0.3,0.7,0.7V19C12.5,19.4,12.2,19.7,11.8,19.7L11.8,19.7z M19,19.7h-3.9c-0.4,0-0.7-0.3-0.7-0.7v-3.9
	c0-0.4,0.3-0.7,0.7-0.7H19c0.4,0,0.7,0.3,0.7,0.7V19C19.7,19.4,19.4,19.7,19,19.7L19,19.7z M4.6,19.7H0.7C0.3,19.7,0,19.4,0,19v-3.9
	c0-0.4,0.3-0.7,0.7-0.7h3.9c0.4,0,0.7,0.3,0.7,0.7V19C5.2,19.4,5,19.7,4.6,19.7L4.6,19.7z"/>
<g>
</g>
<g>
</g>
<g>
</g>
<g>
</g>
<g>
</g>
<g>
</g>
<g>
</g>
<g>
</g>
<g>
</g>
<g>
</g>
<g>
</g>
<g>
</g>
<g>
</g>
<g>
</g>
<g>
</g>
</svg>
