<?xml version="1.0" encoding="utf-8"?>
<!-- Generator: Adobe Illustrator 17.1.0, SVG Export Plug-In . SVG Version: 6.00 Build 0)  -->
<!DOCTYPE svg PUBLIC "-//W3C//DTD SVG 1.1//EN" "http://www.w3.org/Graphics/SVG/1.1/DTD/svg11.dtd">
<svg version="1.1" id="Layer_1" xmlns="http://www.w3.org/2000/svg" xmlns:xlink="http://www.w3.org/1999/xlink" x="0px" y="0px"
	 viewBox="0 0 24 32.8" enable-background="new 0 0 24 32.8" xml:space="preserve">
<path d="M16.5,12.2c1.6-1.2,3-3.2,3-5.4C19.5,3,16.6,0,12.8,0C9.1,0,6.1,3,6.1,6.8c0,2.2,0.7,4.1,2.4,5.4C3.8,12.8,0,16.9,0,21.7
	v4.7v0.3v1l0.1,2.1c0.1,1,1.3,2.9,2.6,2.9h19.7c1.2,0,1.6-2,1.7-3l0-2v-6C24,16.9,21.1,12.8,16.5,12.2z"/>
<g>
</g>
<g>
</g>
<g>
</g>
<g>
</g>
<g>
</g>
<g>
</g>
<g>
</g>
<g>
</g>
<g>
</g>
<g>
</g>
<g>
</g>
<g>
</g>
<g>
</g>
<g>
</g>
<g>
</g>
<g>
</g>
</svg>
