<?xml version="1.0" encoding="utf-8"?>
<!-- Generator: Adobe Illustrator 18.0.0, SVG Export Plug-In . SVG Version: 6.00 Build 0)  -->
<!DOCTYPE svg PUBLIC "-//W3C//DTD SVG 1.1//EN" "http://www.w3.org/Graphics/SVG/1.1/DTD/svg11.dtd">
<svg version="1.1" id="Layer_1" xmlns="http://www.w3.org/2000/svg" xmlns:xlink="http://www.w3.org/1999/xlink" x="0px" y="0px"
	 viewBox="0 179.4 612 612" enable-background="new 0 179.4 612 612" xml:space="preserve" width="500px" height="500px">
<path fill="#d7d7d7" d="M518.3,412c-7.8-7.8-18.7-7.8-26.5,0s-7.8,18.7,0,26.5l48.4,48.4H334.1v-95.2v-26.5h26.5c4.7,0,9.4-4.7,9.4-9.4
	c0-4.7-4.7-7.8-9.4-7.8h-35.9c-4.7,0-9.4,4.7-9.4,9.4v26.5H9.4c-3.1,0-4.7,1.6-6.2,3.1C0,388.6,0,391.7,0,394.8l35.9,140.5
	c1.6,4.7,4.7,6.2,7.8,6.2h273.2v43.7c-4.7,1.6-7.8,4.7-9.4,9.4H71.8c-3.1-7.8-9.4-12.5-17.2-12.5c-10.9,0-20.3,9.4-20.3,20.3
	s9.4,20.3,20.3,20.3c7.8,0,14.1-4.7,17.2-10.9h235.7c3.1,6.2,9.4,10.9,17.2,10.9c10.9,0,20.3-9.4,20.3-20.3
	c0-7.8-4.7-14.1-10.9-17.2v-53.1v-7.8h206.1l-48.4,48.4c-7.8,7.8-7.8,18.7,0,26.5c7.8,7.8,18.7,7.8,26.5,0l93.7-93.7L518.3,412z
	 M43.7,488.5h-1.6l-4.7-17.2h32.8v17.2H43.7z M316.9,454.2h-53.1v-18.7h53.1V454.2z M193.6,454.2v-18.7h53.1v17.2h-53.1V454.2z
	 M157.7,488.5v-17.2h53.1v17.2H157.7z M176.4,435.4v17.2h-53.1v-17.2H176.4z M227.9,418.3v-17.2H281v17.2H227.9z M210.8,418.3h-53.1
	v-17.2h53.1V418.3z M140.5,418.3H87.4v-17.2h53.1V418.3z M106.2,435.4v17.2H32.8l-4.7-17.2H106.2z M87.4,471.3h53.1v17.2H87.4V471.3
	z M176.4,505.7v17.2h-53.1v-17.2H176.4z M193.6,505.7h53.1v17.2h-53.1V505.7z M227.9,488.5v-17.2h87.4v17.2H227.9z M316.9,418.3
	h-17.2v-17.2h17.2V418.3z M70.3,401.1v17.2H25l-4.7-17.2H70.3z M46.8,505.7h59.3v17.2H51.5L46.8,505.7z M263.8,524.4v-17.2h53.1
	v17.2H263.8z"/>
</svg>
