<?xml version="1.0" encoding="utf-8"?>
<!-- Generator: Adobe Illustrator 17.1.0, SVG Export Plug-In . SVG Version: 6.00 Build 0)  -->
<!DOCTYPE svg PUBLIC "-//W3C//DTD SVG 1.1//EN" "http://www.w3.org/Graphics/SVG/1.1/DTD/svg11.dtd">
<svg version="1.1" id="Layer_1" xmlns="http://www.w3.org/2000/svg" xmlns:xlink="http://www.w3.org/1999/xlink" x="0px" y="0px"
	 viewBox="0 0 51.1 39.3" enable-background="new 0 0 51.1 39.3" xml:space="preserve">
<g>
	<path d="M17.7,29.3c11.1,0,22.1,0,33.2,0c0-9.8,0-19.5,0-29.3C40.5,0,30.2,0,19.8,0c0,9.2,0,18.4,0,27.6c-0.8,0-1.4,0-2.2,0
		c0-4.7,0-9.4,0-14.1c-3.8,0-7.5,0-11.1,0c-0.3,0-0.7,0.3-0.9,0.6c-1.8,2.7-3.5,5.5-5.3,8.3C0.1,22.7,0,23.2,0,23.6c0,2.5,0,5,0,7.5
		c0,1.3,0,2.6,0,4c2.2,0,4.3,0,6.3,0c1.5-4.2,2.9-5.5,6-5.3c1,0.1,2.1,0.5,3,1.1c1.5,0.9,2.1,2.5,2.2,4.2c6.8,0,13.4,0,19.9,0
		c0.6-1.3,1.1-2.6,1.6-3.8c-7.1,0-14.3,0-21.5,0C17.7,30.5,17.7,29.9,17.7,29.3z M35.9,1.6c6,0,10.9,4.9,10.9,10.9
		c0,6-4.9,10.9-10.8,11c-6,0.1-11-4.9-11-10.9C25,6.6,29.9,1.6,35.9,1.6z M15.7,23.3c-4.4,0-8.7,0-13.2,0c0.1-0.4,0.2-0.8,0.4-1.1
		c1.3-2,2.6-4.1,3.9-6.1c0.2-0.2,0.5-0.5,0.7-0.5c2.7,0,5.5,0,8.3,0C15.7,18.3,15.7,20.8,15.7,23.3z"/>
	<path d="M12,31.1c-2.2,0-4.1,1.9-4.1,4.1c0,2.3,1.8,4,4,4c2.4,0,4.2-1.8,4.1-4.1C16.1,33,14.2,31.2,12,31.1z"/>
	<path d="M43.4,31.1c-2.2-0.1-4.1,1.8-4.1,4c0,2.3,1.7,4.1,3.9,4.1c2.4,0,4.2-1.7,4.2-4C47.4,33,45.6,31.2,43.4,31.1z"/>
	<path d="M47.8,31.2c0.5,1.3,1,2.5,1.6,3.8c0.5,0,1.1,0,1.8,0c0-1.3,0-2.5,0-3.8C49.9,31.2,48.8,31.2,47.8,31.2z"/>
	<path d="M42.8,7.9C42,7.2,41.3,6.7,40.5,6c-2,3.2-3.9,6.3-5.9,9.5c-1.8-2.1-3.5-4.1-5.3-6.1c-0.8,0.7-1.5,1.4-2.2,2.1
		c2.6,3.2,5.2,6.4,7.8,9.7C37.6,16.7,40.2,12.3,42.8,7.9z"/>
</g>
<g>
</g>
<g>
</g>
<g>
</g>
<g>
</g>
<g>
</g>
<g>
</g>
<g>
</g>
<g>
</g>
<g>
</g>
<g>
</g>
<g>
</g>
<g>
</g>
<g>
</g>
<g>
</g>
<g>
</g>
<g>
</g>
</svg>
