<?xml version="1.0" encoding="utf-8"?>
<!-- Generator: Adobe Illustrator 17.1.0, SVG Export Plug-In . SVG Version: 6.00 Build 0)  -->
<!DOCTYPE svg PUBLIC "-//W3C//DTD SVG 1.1//EN" "http://www.w3.org/Graphics/SVG/1.1/DTD/svg11.dtd">
<svg version="1.1" id="Layer_1" xmlns="http://www.w3.org/2000/svg" xmlns:xlink="http://www.w3.org/1999/xlink" x="0px" y="0px"
	 viewBox="0 0 31.5 27.4" enable-background="new 0 0 31.5 27.4" xml:space="preserve">
<g>
	<path d="M30.5,27.4c-0.7,0-1.3,0-2,0c0-2.2,0-4.5,0-6.7c-8.5,0-17,0-25.4,0c0,2.3,0,4.5,0,6.7c-0.7,0-1.3,0-2,0
		c0.1-4.5,0.2-9,0.2-13.5c9.7,0,19.3,0,29,0c0,0.4,0,0.8,0,1.2C30.4,19.2,30.4,23.3,30.5,27.4z"/>
	<path d="M31.5,13.2c-9.1,0-18.2,0-27.3,0c-1.4,0-2.9,0-4.3,0c0-0.5,0-0.9,0-1.4c10.5,0,21,0,31.5,0C31.5,12.3,31.5,12.8,31.5,13.2z
		"/>
	<path display="none" d="M21.1,10.7C21.1,10.7,21.1,10.7,21.1,10.7c0-3.6-2.5-6.5-5.6-6.5S10,7.1,10,10.7c0,0,0,0,0,0.1H21.1z"/>
	<path d="M9.2,6.5C8.5,6,8.1,5.1,8.1,4.1c0-0.5,0.1-0.9,0.3-1.4L7.9,2.3L5,5.2c0.5,0.4,0.5,0.8-0.1,1.2l3.9,3.9h1.9
		c0.2,0,0.4,0.2,0.4,0.4v0.4H9l0,0l0,0H5.8v-0.4c0-0.2,0.2-0.4,0.4-0.4h1.9L4.4,6.7C3.7,7,3.4,6.7,3.4,5.8c0-1,0.4-1.2,1.2-0.8l3-3
		L7.3,1.7c-0.2-0.2-0.2-0.5,0-0.6l0.9-0.9C8.4,0,8.7,0,8.9,0.1L10,1.3C10.4,1.1,10.8,1,11.2,1c1,0,1.9,0.4,2.5,1.2
		C13.7,2.2,9.2,6.6,9.2,6.5L9.2,6.5z M12.6,3.8c0,0,0.7,0.9,0,1.7c-0.7,0.7-1.7,0-1.7,0L12.6,3.8L12.6,3.8z"/>
</g>
<g>
</g>
<g>
</g>
<g>
</g>
<g>
</g>
<g>
</g>
<g>
</g>
<g>
</g>
<g>
</g>
<g>
</g>
<g>
</g>
<g>
</g>
<g>
</g>
<g>
</g>
<g>
</g>
<g>
</g>
</svg>
