<?xml version="1.0" encoding="utf-8"?>
<!-- Generator: Adobe Illustrator 17.1.0, SVG Export Plug-In . SVG Version: 6.00 Build 0)  -->
<!DOCTYPE svg PUBLIC "-//W3C//DTD SVG 1.1//EN" "http://www.w3.org/Graphics/SVG/1.1/DTD/svg11.dtd">
<svg version="1.1" id="Layer_1" xmlns="http://www.w3.org/2000/svg" xmlns:xlink="http://www.w3.org/1999/xlink" x="0px" y="0px"
	 viewBox="0 0 13.8 39" enable-background="new 0 0 13.8 39" xml:space="preserve">
<g>
	<path d="M11.1,31.5L11.1,31.5V16.6c0-0.6-0.3-1.1-0.7-1.5l-0.2-2.8c0,0-0.5-0.7-1.2-1.3V0.6C9.1,0.3,8.8,0,8.4,0
		C8.1,0,7.8,0.3,7.8,0.6v9.9c-0.5,0-1.1,0.1-1.7,0.6V8.6C6.1,8.2,5.9,8,5.6,8C5.3,8,5,8.2,5,8.6v5.6l-0.1,1.2
		c-0.3,0.3-0.5,0.8-0.5,1.3V32l-1.2,3.2l-1.9,0.3c-0.6,0.1-1,0.5-1.1,1.1L0,37.7V39h13.8v-0.9c0-0.3,0-0.5-0.1-0.7
		C13.2,36.4,12,33.5,11.1,31.5z M6.1,14.7v-1.8c0.6-0.9,1.2-1.1,1.7-1.1v2.8H6.4C6.3,14.7,6.2,14.7,6.1,14.7z M9.2,14.7H9.1v-2
		C9.2,12.8,9.3,13,9.3,13l0.1,1.8C9.3,14.7,9.3,14.7,9.2,14.7z"/>
</g>
<g>
</g>
<g>
</g>
<g>
</g>
<g>
</g>
<g>
</g>
<g>
</g>
<g>
</g>
<g>
</g>
<g>
</g>
<g>
</g>
<g>
</g>
<g>
</g>
<g>
</g>
<g>
</g>
<g>
</g>
<g>
</g>
</svg>
