<?xml version="1.0" encoding="utf-8"?>
<!-- Generator: Adobe Illustrator 17.1.0, SVG Export Plug-In . SVG Version: 6.00 Build 0)  -->
<!DOCTYPE svg PUBLIC "-//W3C//DTD SVG 1.1//EN" "http://www.w3.org/Graphics/SVG/1.1/DTD/svg11.dtd">
<svg version="1.1" id="Layer_1" xmlns="http://www.w3.org/2000/svg" xmlns:xlink="http://www.w3.org/1999/xlink" x="0px" y="0px"
	 viewBox="0 0 26.3 26.3" enable-background="new 0 0 26.3 26.3" xml:space="preserve" width="500px" height="500px">
<g>
	<path fill="#d7d7d7" d="M13.1,0C5.9,0,0,5.9,0,13.1c0,7.3,5.9,13.1,13.1,13.1c7.3,0,13.1-5.9,13.1-13.1C26.3,5.9,20.4,0,13.1,0z M20.8,19.8
		l-0.6,0.7c-0.2,0.2-0.5,0.2-0.7,0L14.8,16c-0.1,0-0.1-0.1-0.1-0.2c-0.9,0.7-2.1,1.1-3.4,1.2c-3.2,0.1-5.8-2.4-5.8-5.6
		c-0.1-3.2,2.4-5.8,5.6-5.8c3.2-0.1,5.8,2.4,5.8,5.6c0,1.3-0.4,2.4-1,3.4c0.1,0,0.1,0.1,0.2,0.1l4.7,4.5C21,19.4,21,19.7,20.8,19.8z
		 M11.2,14.9c-2.1,0-3.9-1.6-3.9-3.7s1.6-3.9,3.7-3.9S14.9,8.9,15,11S13.3,14.9,11.2,14.9z"/>
</g>
<g>
</g>
<g>
</g>
<g>
</g>
<g>
</g>
<g>
</g>
<g>
</g>
<g>
</g>
<g>
</g>
<g>
</g>
<g>
</g>
<g>
</g>
<g>
</g>
<g>
</g>
<g>
</g>
<g>
</g>
<g>
</g>
</svg>
