<?xml version="1.0" encoding="utf-8"?>
<!-- Generator: Adobe Illustrator 17.1.0, SVG Export Plug-In . SVG Version: 6.00 Build 0)  -->
<!DOCTYPE svg PUBLIC "-//W3C//DTD SVG 1.1//EN" "http://www.w3.org/Graphics/SVG/1.1/DTD/svg11.dtd">
<svg version="1.1" id="Layer_1" xmlns="http://www.w3.org/2000/svg" xmlns:xlink="http://www.w3.org/1999/xlink" x="0px" y="0px"
	 viewBox="0 0 28.7 18.3" enable-background="new 0 0 28.7 18.3" xml:space="preserve">
<path d="M10,7.4c1-0.8,1.7-1.9,1.7-3.3C11.6,1.9,9.8,0,7.5,0C5.2,0,3.4,1.9,3.4,4.1c0,1.3,0.6,2.5,1.6,3.3C2.1,7.8,0,10.3,0,13.2
	l0,3.1c0.1,1,1,2,1.8,2h12c0.8,0,1.1-0.9,1.1-1.9l0-3.2C14.9,10.3,12.8,7.8,10,7.4z"/>
<polygon points="28.7,6.3 24.7,13.3 20.6,6.3 "/>
<g>
</g>
<g>
</g>
<g>
</g>
<g>
</g>
<g>
</g>
<g>
</g>
<g>
</g>
<g>
</g>
<g>
</g>
<g>
</g>
<g>
</g>
<g>
</g>
<g>
</g>
<g>
</g>
<g>
</g>
</svg>
