<?xml version="1.0" encoding="utf-8"?>
<!-- Generator: Adobe Illustrator 17.1.0, SVG Export Plug-In . SVG Version: 6.00 Build 0)  -->
<!DOCTYPE svg PUBLIC "-//W3C//DTD SVG 1.1//EN" "http://www.w3.org/Graphics/SVG/1.1/DTD/svg11.dtd">
<svg version="1.1" id="Layer_1" xmlns="http://www.w3.org/2000/svg" xmlns:xlink="http://www.w3.org/1999/xlink" x="0px" y="0px"
	 viewBox="0 0 26.6 30.1" enable-background="new 0 0 26.6 30.1" xml:space="preserve">
<g>
	<path d="M12.9,27.9c0-1.4,0-2.9,0-4.3c-2.9-0.2-5.5-1.3-7.6-3.2c-2.2-1.9-3.5-4.4-4.1-7.2c-0.4,0-0.7,0-1.1,0c0-0.2,0-0.5,0-0.7
		c0-0.2,0-0.5,0-0.7c0.3,0,0.6,0,0.9,0c0-0.5,0-0.9,0-1.3c0.4,0,0.8,0,1.3,0c0,0.4,0.1,0.8,0.1,1.3c0.4,0,0.8,0,1.3,0
		C3.1,8.3,4,5.3,6.4,2.9c2-2,4.5-3,7.4-2.9c3,0.1,5.6,1.3,7.6,3.6c2,2.3,2.7,5,2.3,8.1c0.4,0,0.7,0,1,0c0.1,0,0.2-0.1,0.2-0.2
		c0-0.3,0-0.7,0.1-1.1c0.1,0,0.2,0,0.3,0c0.3,0,0.7,0,1,0c0,0.5,0,0.9,0,1.3c0.1,0,0.2,0,0.3,0c0,0.5,0,0.9,0,1.4
		c-0.2,0-0.4,0-0.5,0c-1.7,6.1-5.5,9.7-11.8,10.5c0,1.4,0,2.8,0,4.3c0.3,0,0.5,0,0.8,0c1,0.1,2.1,0.2,3.1,0.5
		c0.2,0.1,0.3,0.1,0.5,0.2c0.3,0.2,0.3,0.5,0,0.6c-0.4,0.2-0.9,0.4-1.3,0.5c-1.6,0.3-3.2,0.4-4.8,0.3c-1.1-0.1-2.2-0.1-3.3-0.5
		c-0.2-0.1-0.3-0.1-0.5-0.2c-0.3-0.2-0.3-0.5,0-0.6c0.4-0.2,0.9-0.4,1.4-0.5c0.8-0.1,1.6-0.2,2.5-0.3C12.6,27.9,12.7,27.9,12.9,27.9
		z M5.2,10.2c0,4.7,3.8,8.5,8.4,8.4c4.6,0,8.4-3.8,8.3-8.5c0-4.6-3.8-8.4-8.3-8.4C9,1.7,5.2,5.5,5.2,10.2z M24.6,13.2
		C24.6,13.1,24.5,13.1,24.6,13.2c-0.4,0-0.7,0-1,0c-0.2,0-0.3,0.1-0.4,0.3c-0.5,1.6-1.4,3-2.7,4.2c-3.2,3.1-8.2,3.7-12,1.5
		c-2.3-1.3-3.8-3.2-4.7-5.6c0-0.1-0.1-0.2-0.2-0.2c-0.4,0-0.8,0-1.2,0c1,4.8,5.5,9.5,11.7,9.1C20.3,21.9,23.9,16.9,24.6,13.2z"/>
</g>
<g>
</g>
<g>
</g>
<g>
</g>
<g>
</g>
<g>
</g>
<g>
</g>
<g>
</g>
<g>
</g>
<g>
</g>
<g>
</g>
<g>
</g>
<g>
</g>
<g>
</g>
<g>
</g>
<g>
</g>
</svg>
