<?xml version="1.0" encoding="utf-8"?>
<!-- Generator: Adobe Illustrator 17.1.0, SVG Export Plug-In . SVG Version: 6.00 Build 0)  -->
<!DOCTYPE svg PUBLIC "-//W3C//DTD SVG 1.1//EN" "http://www.w3.org/Graphics/SVG/1.1/DTD/svg11.dtd">
<svg version="1.1" id="Layer_1" xmlns="http://www.w3.org/2000/svg" xmlns:xlink="http://www.w3.org/1999/xlink" x="0px" y="0px"
	 viewBox="0 0 34.3 27" enable-background="new 0 0 34.3 27" xml:space="preserve">
<g>
	<path d="M32.2,21.1h-30C1,21.1,0,20.3,0,19.4V1.7C0,0.8,1,0,2.1,0h30c1.2,0,2.1,0.8,2.1,1.7v17.7C34.3,20.3,33.4,21.1,32.2,21.1
		L32.2,21.1z M32.2,3.7c0-1.1-1-2-2.1-2H4.3c-1.2,0-2.1,0.9-2.1,2v13.8c0,1.1,1,2,2.1,2H30c1.2,0,2.1-0.9,2.1-2V3.7L32.2,3.7z
		 M13.8,24.5v-2.5h6.7v2.5c0,0,1.7,0.8,2.5,1.7c0.8,0.8-0.8,0.8-0.8,0.8H12.1c0,0-1.7,0-0.8-0.8C12.1,25.3,13.8,24.5,13.8,24.5
		L13.8,24.5z"/>
</g>
<g>
</g>
<g>
</g>
<g>
</g>
<g>
</g>
<g>
</g>
<g>
</g>
<g>
</g>
<g>
</g>
<g>
</g>
<g>
</g>
<g>
</g>
<g>
</g>
<g>
</g>
<g>
</g>
<g>
</g>
<g>
</g>
</svg>
