<?xml version="1.0" encoding="utf-8"?>
<!-- Generator: Adobe Illustrator 17.1.0, SVG Export Plug-In . SVG Version: 6.00 Build 0)  -->
<!DOCTYPE svg PUBLIC "-//W3C//DTD SVG 1.1//EN" "http://www.w3.org/Graphics/SVG/1.1/DTD/svg11.dtd">
<svg version="1.1" id="Layer_1" xmlns="http://www.w3.org/2000/svg" xmlns:xlink="http://www.w3.org/1999/xlink" x="0px" y="0px"
	 viewBox="0 0 30.4 27" enable-background="new 0 0 30.4 27" xml:space="preserve">
<g>
	<path d="M24.7,27v-2.2h0c0-0.2,0-0.4,0-0.6v-9.6v-2.8c0-5.3-4.3-9.6-9.6-9.6s-9.6,4.3-9.6,9.6v2.8v9.6c0,0.2,0,0.4,0,0.6h0V27
		c0,0-5.6-0.1-5.6-6.2c0-3.5,1.8-5,3.4-5.7v-3.3C3.4,5.3,8.7,0,15.2,0C21.7,0,27,5.3,27,11.8v3.3c1.6,0.7,3.4,2.2,3.4,5.7
		C30.4,26.9,24.7,27,24.7,27L24.7,27z M7.9,27H6.7V14.6h1.1V27L7.9,27z M23.6,27h-1.1V14.6h1.1V27L23.6,27z"/>
</g>
<g>
</g>
<g>
</g>
<g>
</g>
<g>
</g>
<g>
</g>
<g>
</g>
<g>
</g>
<g>
</g>
<g>
</g>
<g>
</g>
<g>
</g>
<g>
</g>
<g>
</g>
<g>
</g>
<g>
</g>
<g>
</g>
</svg>
