<?xml version="1.0" encoding="utf-8"?>
<!-- Generator: Adobe Illustrator 18.0.0, SVG Export Plug-In . SVG Version: 6.00 Build 0)  -->
<!DOCTYPE svg PUBLIC "-//W3C//DTD SVG 1.1//EN" "http://www.w3.org/Graphics/SVG/1.1/DTD/svg11.dtd">
<svg version="1.1" id="Layer_1" xmlns="http://www.w3.org/2000/svg" xmlns:xlink="http://www.w3.org/1999/xlink" x="0px" y="0px"
	 viewBox="0 0 17.4 17.4" enable-background="new 0 0 17.4 17.4" xml:space="preserve" width="500px" height="500px">
<path fill="#838383" d="M8.7,0C3.9,0,0,3.9,0,8.7c0,4.8,3.9,8.7,8.7,8.7c4.8,0,8.7-3.9,8.7-8.7C17.4,3.9,13.5,0,8.7,0z M9.7,14H8.1v-1.6h1.5V14z
	 M12.2,6.9c-0.2,0.3-0.7,0.8-1.4,1.5c-0.5,0.5-0.8,0.9-1,1.2c-0.2,0.3-0.2,0.8-0.2,1.5H8.2c0-0.7,0.1-1.3,0.3-1.8s0.6-1,1.2-1.6
	l0.6-0.6c0.2-0.2,0.3-0.4,0.5-0.6c0.2-0.3,0.3-0.7,0.3-1c0-0.5-0.2-0.9-0.5-1.3C10.3,3.9,9.7,3.7,9,3.7c-0.9,0-1.5,0.3-1.8,1
	C7,5,6.9,5.5,6.9,6.2H5.5c0-1.1,0.3-2,1-2.7c0.6-0.7,1.5-1,2.6-1c1,0,1.9,0.3,2.5,0.9c0.6,0.6,0.9,1.3,0.9,2.2
	C12.5,6.1,12.4,6.6,12.2,6.9z"/>
<g>
</g>
<g>
</g>
<g>
</g>
<g>
</g>
<g>
</g>
<g>
</g>
<g>
</g>
<g>
</g>
<g>
</g>
<g>
</g>
<g>
</g>
<g>
</g>
<g>
</g>
<g>
</g>
<g>
</g>
</svg>
