<?xml version="1.0" encoding="utf-8"?>
<!-- Generator: Adobe Illustrator 17.1.0, SVG Export Plug-In . SVG Version: 6.00 Build 0)  -->
<!DOCTYPE svg PUBLIC "-//W3C//DTD SVG 1.1//EN" "http://www.w3.org/Graphics/SVG/1.1/DTD/svg11.dtd">
<svg version="1.1" id="Layer_1" xmlns="http://www.w3.org/2000/svg" xmlns:xlink="http://www.w3.org/1999/xlink" x="0px" y="0px"
	 viewBox="0 0 27 35.9" enable-background="new 0 0 27 35.9" xml:space="preserve">
<g>
	<path d="M21.2,10.8c0.2,0,0.4-0.2,0.4-0.4v-0.2c0-0.2-0.2-0.4-0.4-0.4H5.8c-0.2,0-0.4,0.2-0.4,0.4v0.2c0,0.2,0.2,0.4,0.4,0.4H21.2z
		"/>
	<path d="M26.8,10h-3.5c-0.1,0-0.3,0.1-0.3,0.3v15.4H4V10.2C4,10.1,3.9,10,3.7,10H0.3C0.1,10,0,10.1,0,10.2v17.8h27V10.2
		C27,10.1,26.9,10,26.8,10z"/>
	<path d="M0,35.6c0,0.1,0.1,0.3,0.3,0.3h1.5h2h19.6h3.1h0.4c0.1,0,0.3-0.1,0.3-0.3v-6.8H0V35.6z"/>
	<path d="M26.7,2.3h-3.2v-2c0-0.2-0.1-0.3-0.3-0.3h-7.9C15.1,0,15,0.1,15,0.3v2h-2.5v-2c0-0.2-0.1-0.3-0.3-0.3H4.2
		C4.1,0,3.9,0.1,3.9,0.3v2H0.3C0.1,2.3,0,2.5,0,2.6v5.8c0,0.2,0.1,0.3,0.3,0.3h26.4c0.2,0,0.3-0.1,0.3-0.3V2.6
		C27,2.5,26.9,2.3,26.7,2.3z M3.6,6.6c-0.6,0-1.1-0.5-1.1-1.1c0-0.6,0.5-1.1,1.1-1.1c0.6,0,1.1,0.5,1.1,1.1C4.7,6.1,4.2,6.6,3.6,6.6
		z M6.5,6.6c-0.6,0-1.1-0.5-1.1-1.1c0-0.6,0.5-1.1,1.1-1.1c0.6,0,1.1,0.5,1.1,1.1C7.6,6.1,7.1,6.6,6.5,6.6z M24.1,6.6
		c-0.6,0-1.1-0.5-1.1-1.1c0-0.6,0.5-1.1,1.1-1.1c0.6,0,1.1,0.5,1.1,1.1C25.2,6.1,24.7,6.6,24.1,6.6z"/>
</g>
<g>
</g>
<g>
</g>
<g>
</g>
<g>
</g>
<g>
</g>
<g>
</g>
<g>
</g>
<g>
</g>
<g>
</g>
<g>
</g>
<g>
</g>
<g>
</g>
<g>
</g>
<g>
</g>
<g>
</g>
<g>
</g>
</svg>
