<?xml version="1.0" encoding="utf-8"?>
<!-- Generator: Adobe Illustrator 17.1.0, SVG Export Plug-In . SVG Version: 6.00 Build 0)  -->
<!DOCTYPE svg PUBLIC "-//W3C//DTD SVG 1.1//EN" "http://www.w3.org/Graphics/SVG/1.1/DTD/svg11.dtd">
<svg version="1.1" id="Layer_1" xmlns="http://www.w3.org/2000/svg" xmlns:xlink="http://www.w3.org/1999/xlink" x="0px" y="0px"
	 viewBox="0 0 34.1 34.1" enable-background="new 0 0 34.1 34.1" xml:space="preserve">
<path d="M17.1,0C7.6,0,0,7.6,0,17.1s7.6,17.1,17.1,17.1s17.1-7.6,17.1-17.1S26.5,0,17.1,0z M25.9,24.4c0.3,0.3,0.5,0.7,0.5,1.2
	c0,0.9-0.7,1.7-1.7,1.7c-0.5,0-0.9-0.2-1.2-0.5l-6.5-6.5l-6.5,6.5c-0.3,0.3-0.7,0.5-1.2,0.5c-0.9,0-1.7-0.7-1.7-1.7
	c0-0.5,0.2-0.9,0.5-1.2l6.5-6.5l-6.5-6.5c-0.3-0.3-0.5-0.7-0.5-1.2c0-0.9,0.7-1.7,1.7-1.7c0.5,0,0.9,0.2,1.2,0.5l6.5,6.5L23.6,9
	c0.3-0.3,0.7-0.5,1.2-0.5c0.9,0,1.7,0.7,1.7,1.7c0,0.5-0.2,0.9-0.5,1.2l-6.5,6.5L25.9,24.4z"/>
<g>
</g>
<g>
</g>
<g>
</g>
<g>
</g>
<g>
</g>
<g>
</g>
<g>
</g>
<g>
</g>
<g>
</g>
<g>
</g>
<g>
</g>
<g>
</g>
<g>
</g>
<g>
</g>
<g>
</g>
<g>
</g>
</svg>
