<?xml version="1.0" encoding="utf-8"?>
<!-- Generator: Adobe Illustrator 17.1.0, SVG Export Plug-In . SVG Version: 6.00 Build 0)  -->
<!DOCTYPE svg PUBLIC "-//W3C//DTD SVG 1.1//EN" "http://www.w3.org/Graphics/SVG/1.1/DTD/svg11.dtd">
<svg version="1.1" id="Layer_1" xmlns="http://www.w3.org/2000/svg" xmlns:xlink="http://www.w3.org/1999/xlink" x="0px" y="0px"
	 viewBox="0 0 40 40" enable-background="new 0 0 40 40" xml:space="preserve">
<g>
	<rect x="18.3" y="14.1" width="3.2" height="1.1"/>
	<polygon points="15.2,16.2 10.6,16.2 10.8,17.2 15.2,17.2 	"/>
	<rect x="20.4" y="16.2" width="3.2" height="1.1"/>
	<polygon points="13.1,14.1 10.1,14.1 10.3,15.1 13.1,15.1 	"/>
	<rect x="14.1" y="14.1" width="3.2" height="1.1"/>
	<rect x="16.2" y="16.2" width="3.2" height="1.1"/>
	<rect x="18.3" y="18.3" width="3.2" height="1.1"/>
	<rect x="22.5" y="14.1" width="3.2" height="1.1"/>
	<rect x="14.1" y="18.3" width="3.2" height="1.1"/>
	<rect x="24.6" y="20.4" width="3.2" height="1.1"/>
	<rect x="24.6" y="16.2" width="3.2" height="1.1"/>
	<rect x="26.8" y="14.1" width="1.1" height="1.1"/>
	<rect x="22.5" y="18.3" width="5.3" height="1.1"/>
	<path d="M20,0C9,0,0,9,0,20c0,11,9,20,20,20s20-9,20-20C40,9,31,0,20,0z M30.4,12h-1.6v1.6V22v3.1c0.4,0.2,0.7,0.6,0.7,1.1
		c0,0.7-0.5,1.2-1.2,1.2c-0.5,0-0.9-0.3-1.1-0.7H13.2c-0.2,0.4-0.6,0.7-1.1,0.7c-0.7,0-1.2-0.5-1.2-1.2c0-0.7,0.5-1.2,1.2-1.2
		c0.5,0,0.9,0.3,1.1,0.7h14.1c0.1-0.2,0.3-0.4,0.5-0.5v-2.6H11.5c-0.2,0-0.5-0.2-0.5-0.4l-2.1-8.4c0-0.2,0-0.3,0.1-0.5
		S9.2,13,9.4,13h18.4v-1.6c0-0.3,0.2-0.5,0.5-0.5h2.1c0.3,0,0.5,0.2,0.5,0.5S30.7,12,30.4,12z"/>
	<rect x="20.4" y="20.4" width="3.2" height="1.1"/>
	<path d="M13.1,18.3h-2l0.3,1.1c0,0,0.1,0,0.1,0h1.6V18.3z"/>
	<polygon points="11.9,21.4 15.2,21.4 15.2,20.4 11.6,20.4 	"/>
	<rect x="16.2" y="20.4" width="3.2" height="1.1"/>
</g>
<g>
</g>
<g>
</g>
<g>
</g>
<g>
</g>
<g>
</g>
<g>
</g>
<g>
</g>
<g>
</g>
<g>
</g>
<g>
</g>
<g>
</g>
<g>
</g>
<g>
</g>
<g>
</g>
<g>
</g>
<g>
</g>
</svg>
