<?xml version="1.0" encoding="utf-8"?>
<!-- Generator: Adobe Illustrator 17.1.0, SVG Export Plug-In . SVG Version: 6.00 Build 0)  -->
<!DOCTYPE svg PUBLIC "-//W3C//DTD SVG 1.1//EN" "http://www.w3.org/Graphics/SVG/1.1/DTD/svg11.dtd">
<svg version="1.1" id="Layer_1" xmlns="http://www.w3.org/2000/svg" xmlns:xlink="http://www.w3.org/1999/xlink" x="0px" y="0px"
	 viewBox="0 0 24.1 28.5" enable-background="new 0 0 24.1 28.5" xml:space="preserve" width="500px" height="500px">
<g>
	<path fill="#FFFFFF"  d="M6.5,8c0-2.8,2.3-5.1,5.1-5.1c2.8,0,5.1,2.3,5.1,5.1c0,2.8-2.3,5.1-5.1,5.1C8.8,13,6.5,10.8,6.5,8L6.5,8z M3,8.6
		c0,2.1,2.6,6.6,2.6,6.6l6.1,10.1l5.7-10.1c0,0,2.9-4.5,2.9-6.6c0-4.7-3.9-8.6-8.6-8.6C6.9,0,3,3.8,3,8.6L3,8.6z"/>
	<path fill="#FFFFFF"  d="M12.1,28.5C6.2,28.5,0,26.8,0,23.6c0-1.7,2-3.2,5.4-4.1L5.8,21c-3,0.7-4.3,1.9-4.3,2.7c0,1.4,4,3.4,10.6,3.4
		s10.6-2,10.6-3.4c0-0.9-1.6-2.1-5.1-2.8l0.3-1.4c4,0.8,6.2,2.4,6.2,4.3C24.1,26.8,17.9,28.5,12.1,28.5z"/>
</g>
<g>
</g>
<g>
</g>
<g>
</g>
<g>
</g>
<g>
</g>
<g>
</g>
<g>
</g>
<g>
</g>
<g>
</g>
<g>
</g>
<g>
</g>
<g>
</g>
<g>
</g>
<g>
</g>
<g>
</g>
<g>
</g>
</svg>
