<?xml version="1.0" encoding="utf-8"?>
<!-- Generator: Adobe Illustrator 18.0.0, SVG Export Plug-In . SVG Version: 6.00 Build 0)  -->
<!DOCTYPE svg PUBLIC "-//W3C//DTD SVG 1.1//EN" "http://www.w3.org/Graphics/SVG/1.1/DTD/svg11.dtd">
<svg version="1.1" id="Layer_1" xmlns="http://www.w3.org/2000/svg" xmlns:xlink="http://www.w3.org/1999/xlink" x="0px" y="0px"
	 viewBox="0 0 17.6 17.6" enable-background="new 0 0 17.6 17.6" xml:space="preserve">
<g>
	<g id="CLOSE_1_">
		<g>
			<g id="CLOSE_15_">
				<g>
					<path fill="#020202" d="M9.8,9l2.8-2.8c0.1-0.1,0.2-0.3,0.2-0.5c0-0.4-0.3-0.7-0.7-0.7c-0.2,0-0.4,0.1-0.5,0.2L8.8,8L6,5.2
						C5.9,5.1,5.7,5,5.5,5C5.1,5,4.8,5.3,4.8,5.7c0,0.2,0.1,0.4,0.2,0.5L7.8,9L5,11.8c-0.1,0.1-0.2,0.3-0.2,0.5
						c0,0.4,0.3,0.7,0.7,0.7C5.7,13,5.9,13,6,12.8L8.8,10l2.8,2.8c0.1,0.1,0.3,0.2,0.5,0.2c0.4,0,0.7-0.3,0.7-0.7
						c0-0.2-0.1-0.4-0.2-0.5L9.8,9z"/>
				</g>
			</g>
		</g>
	</g>
	<path fill="#020202" d="M8.8,17.6C3.9,17.6,0,13.6,0,8.8S3.9,0,8.8,0c4.8,0,8.8,3.9,8.8,8.8S13.6,17.6,8.8,17.6z M8.8,1.1
		c-4.2,0-7.7,3.4-7.7,7.7s3.4,7.7,7.7,7.7c4.2,0,7.7-3.4,7.7-7.7S13,1.1,8.8,1.1z"/>
</g>
<g>
</g>
<g>
</g>
<g>
</g>
<g>
</g>
<g>
</g>
<g>
</g>
<g>
</g>
<g>
</g>
<g>
</g>
<g>
</g>
<g>
</g>
<g>
</g>
<g>
</g>
<g>
</g>
<g>
</g>
</svg>
