<?xml version="1.0" encoding="utf-8"?>
<!-- Generator: Adobe Illustrator 17.1.0, SVG Export Plug-In . SVG Version: 6.00 Build 0)  -->
<!DOCTYPE svg PUBLIC "-//W3C//DTD SVG 1.1//EN" "http://www.w3.org/Graphics/SVG/1.1/DTD/svg11.dtd">
<svg version="1.1" id="Layer_1" xmlns="http://www.w3.org/2000/svg" xmlns:xlink="http://www.w3.org/1999/xlink" x="0px" y="0px"
	 viewBox="0 0 25.1 30.5" enable-background="new 0 0 25.1 30.5" xml:space="preserve">
<g>
	<path d="M5.6,14.6l0.2,0.1h13.5l0.2-0.1c1.2-0.6,0-1.5,0-1.5l-1.3-0.2l-0.3-0.7v-0.9l1.6-0.1v-0.4h-1.6l-0.1,0v-0.6c0,0-0.9,0-1,0
		c-0.1,0-0.1,0.5-0.1,0.5l-0.3,0v0.6l0.3,0l-0.1,0.8l-0.8,0.8L14.2,13c0.1-0.5-0.4-2.7-0.4-2.7h-1V10l0-0.6c0.2,0,0.5-0.6,0.5-0.6
		s-0.1-7.6-0.1-8.2C13.3,0,12.6,0,12.6,0l0,0.2h0l0-0.2c0,0-0.7,0-0.7,0.6c0,0.6-0.1,8.2-0.1,8.2s0.3,0.5,0.5,0.6l0,0.6v0.3h-1
		c0,0-0.5,2.2-0.4,2.7l-1.7,0.1l-0.8-0.8l-0.1-0.8l0.3,0v-0.6l-0.3,0c0,0,0-0.5-0.1-0.5c-0.1,0-1,0-1,0v0.6l-0.1,0H5.6v0.4l1.6,0.1
		v0.9l-0.3,0.7l-1.3,0.2C5.6,13.1,4.5,13.9,5.6,14.6z"/>
	<path d="M24.4,15.2H13.6h-1.1h-1.1H0.7C-1.1,16.5,1,17.6,1,17.6c3.9,6,9.6,7.3,9.6,7.3l0.1,4.5c0.3,1,1.8,1.1,1.8,1.1
		s1.5-0.1,1.8-1.1l0.1-4.5c0,0,5.6-1.4,9.6-7.3C24.1,17.6,26.2,16.5,24.4,15.2z"/>
</g>
<g>
</g>
<g>
</g>
<g>
</g>
<g>
</g>
<g>
</g>
<g>
</g>
<g>
</g>
<g>
</g>
<g>
</g>
<g>
</g>
<g>
</g>
<g>
</g>
<g>
</g>
<g>
</g>
<g>
</g>
<g>
</g>
</svg>
