<?xml version="1.0" encoding="utf-8"?>
<!-- Generator: Adobe Illustrator 17.1.0, SVG Export Plug-In . SVG Version: 6.00 Build 0)  -->
<!DOCTYPE svg PUBLIC "-//W3C//DTD SVG 1.1//EN" "http://www.w3.org/Graphics/SVG/1.1/DTD/svg11.dtd">
<svg version="1.1" id="Layer_1" xmlns="http://www.w3.org/2000/svg" xmlns:xlink="http://www.w3.org/1999/xlink" x="0px" y="0px"
	 viewBox="0 0 27 27.9" enable-background="new 0 0 27 27.9" xml:space="preserve">
<g>
	<path d="M27,7.9C27,3.6,23.4,0,19,0H7.9C3.6,0,0,3.6,0,7.9V20c0,4.4,3.6,7.9,7.9,7.9H19c4.4,0,7.9-3.6,7.9-7.9V7.9z M8.6,21.6
		c-1.2,0-2.1-0.9-2.1-2.1c0-1.2,0.9-2.1,2.1-2.1c1.2,0,2.1,1,2.1,2.1C10.7,20.6,9.8,21.6,8.6,21.6z M13.9,21.2c0-1.9-0.6-3.7-2-5.1
		c-1.4-1.4-3.2-2-5.1-2v-3c5.8,0,10.2,4.3,10.2,10.1H13.9z M19.3,21.2c0-6.7-5.8-12.5-12.6-12.5V5.7c8.7,0,15.6,6.8,15.6,15.5H19.3z
		"/>
</g>
<g>
</g>
<g>
</g>
<g>
</g>
<g>
</g>
<g>
</g>
<g>
</g>
<g>
</g>
<g>
</g>
<g>
</g>
<g>
</g>
<g>
</g>
<g>
</g>
<g>
</g>
<g>
</g>
<g>
</g>
<g>
</g>
</svg>
