<?xml version="1.0" encoding="utf-8"?>
<!-- Generator: Adobe Illustrator 17.1.0, SVG Export Plug-In . SVG Version: 6.00 Build 0)  -->
<!DOCTYPE svg PUBLIC "-//W3C//DTD SVG 1.1//EN" "http://www.w3.org/Graphics/SVG/1.1/DTD/svg11.dtd">
<svg version="1.1" id="Layer_1" xmlns="http://www.w3.org/2000/svg" xmlns:xlink="http://www.w3.org/1999/xlink" x="0px" y="0px"
	 viewBox="0 0 24.5 21" enable-background="new 0 0 24.5 21" xml:space="preserve">
<g>
	<path d="M12.4,3.8c3.1,0,4.8-0.1,5.9,1.8c0.4,0.6,0.8,2.1,0.9,3.3h5.3c0-2.9,0-5.8-1.5-7.1C20.6,0,15.9,0,12.2,0
		C8.6,0,3.7-0.1,1.4,1.8C-0.2,3,0,6.1,0,9h5.7c0.1-1.3,0.4-2.8,0.8-3.5C7.7,3.7,9.4,3.8,12.4,3.8z"/>
	<path d="M2.7,11c1.3,0,2.4,0.1,2.7-1.2c0-0.2,0.1-0.4,0.1-0.6H5.4H0C0,11.1,1.2,11,2.7,11z"/>
	<path d="M19.4,9.2L19.4,9.2c0,0.2,0,0.4,0,0.6c0.2,1.2,1.3,1.1,2.5,1.1c1.4,0,2.5,0.1,2.5-1.7H19.4z"/>
	<path d="M17.3,6.1V5.3c0-0.4-0.3-0.4-0.8-0.4h-0.7c-0.4,0-0.8,0-0.8,0.4V6v0.6h-5V6V5.3c0-0.4-0.3-0.4-0.8-0.4H8.6
		c-0.4,0-0.8,0-0.8,0.4v0.8v0.7c-1.1,1.4-4.8,7.6-5,8.4l0,5c0,0.5,0.3,0.8,0.7,0.8h18c0.4,0,0.7-0.4,0.7-0.8v-5
		c-0.1-0.7-3.8-6.9-5-8.3V6.1z M9.1,16.4c-0.4,0-0.7-0.3-0.7-0.7S8.7,15,9.1,15c0.4,0,0.7,0.3,0.7,0.7S9.5,16.4,9.1,16.4z M9.1,13.9
		c-0.4,0-0.7-0.3-0.7-0.7s0.3-0.7,0.7-0.7c0.4,0,0.7,0.3,0.7,0.7S9.5,13.9,9.1,13.9z M9.1,11.5c-0.4,0-0.7-0.3-0.7-0.7
		c0-0.4,0.3-0.7,0.7-0.7c0.4,0,0.7,0.3,0.7,0.7C9.8,11.1,9.5,11.5,9.1,11.5z M12,16.4c-0.4,0-0.7-0.3-0.7-0.7S11.6,15,12,15
		c0.4,0,0.7,0.3,0.7,0.7S12.4,16.4,12,16.4z M12,13.9c-0.4,0-0.7-0.3-0.7-0.7s0.3-0.7,0.7-0.7c0.4,0,0.7,0.3,0.7,0.7
		S12.4,13.9,12,13.9z M12,11.5c-0.4,0-0.7-0.3-0.7-0.7c0-0.4,0.3-0.7,0.7-0.7c0.4,0,0.7,0.3,0.7,0.7C12.7,11.1,12.4,11.5,12,11.5z
		 M14.8,16.4c-0.4,0-0.7-0.3-0.7-0.7s0.3-0.7,0.7-0.7s0.7,0.3,0.7,0.7S15.2,16.4,14.8,16.4z M14.8,13.9c-0.4,0-0.7-0.3-0.7-0.7
		s0.3-0.7,0.7-0.7s0.7,0.3,0.7,0.7S15.2,13.9,14.8,13.9z M14.8,11.5c-0.4,0-0.7-0.3-0.7-0.7c0-0.4,0.3-0.7,0.7-0.7s0.7,0.3,0.7,0.7
		C15.5,11.1,15.2,11.5,14.8,11.5z"/>
</g>
<g>
</g>
<g>
</g>
<g>
</g>
<g>
</g>
<g>
</g>
<g>
</g>
<g>
</g>
<g>
</g>
<g>
</g>
<g>
</g>
<g>
</g>
<g>
</g>
<g>
</g>
<g>
</g>
<g>
</g>
<g>
</g>
</svg>
