<?xml version="1.0" encoding="utf-8"?>
<!-- Generator: Adobe Illustrator 17.1.0, SVG Export Plug-In . SVG Version: 6.00 Build 0)  -->
<!DOCTYPE svg PUBLIC "-//W3C//DTD SVG 1.1//EN" "http://www.w3.org/Graphics/SVG/1.1/DTD/svg11.dtd">
<svg version="1.1" id="Layer_1" xmlns="http://www.w3.org/2000/svg" xmlns:xlink="http://www.w3.org/1999/xlink" x="0px" y="0px"
	 viewBox="0 0 33.2 27" enable-background="new 0 0 33.2 27" xml:space="preserve">
<g>
	<path d="M9.9,15.6c0,3.7,3,6.8,6.8,6.8s6.8-3,6.8-6.8s-3-6.8-6.8-6.8S9.9,11.8,9.9,15.6z M31.2,4.2h-7.3c-0.5-2.1-1-4.2-3.1-4.2
		h-8.3c-2.1,0-2.6,2.1-3.1,4.2H2.1C0.9,4.2,0,5.1,0,6.2v18.7C0,26.1,0.9,27,2.1,27h29.1c1.1,0,2.1-0.9,2.1-2.1V6.2
		C33.2,5.1,32.3,4.2,31.2,4.2z M16.6,24.8c-5.1,0-9.2-4.1-9.2-9.2s4.1-9.2,9.2-9.2s9.2,4.1,9.2,9.2S21.7,24.8,16.6,24.8z M31.2,10.4
		H27V8.3h4.2V10.4z"/>
</g>
<g>
</g>
<g>
</g>
<g>
</g>
<g>
</g>
<g>
</g>
<g>
</g>
<g>
</g>
<g>
</g>
<g>
</g>
<g>
</g>
<g>
</g>
<g>
</g>
<g>
</g>
<g>
</g>
<g>
</g>
<g>
</g>
</svg>
