<?xml version="1.0" encoding="utf-8"?>
<!-- Generator: Adobe Illustrator 17.1.0, SVG Export Plug-In . SVG Version: 6.00 Build 0)  -->
<!DOCTYPE svg PUBLIC "-//W3C//DTD SVG 1.1//EN" "http://www.w3.org/Graphics/SVG/1.1/DTD/svg11.dtd">
<svg version="1.1" id="Layer_1" xmlns="http://www.w3.org/2000/svg" xmlns:xlink="http://www.w3.org/1999/xlink" x="0px" y="0px"
	 viewBox="0 0 42.6 27" enable-background="new 0 0 42.6 27" xml:space="preserve">
<g>
	<path d="M38.4,27H4.3C2.7,27,0,26,0,24.9c0-1.2,1.3-2.1,2.8-2.1h36.9c1.6,0,2.8,1,2.8,2.1C42.6,26,39.9,27,38.4,27L38.4,27z
		 M25.6,24.2h-8.5c-0.8,0-1.4,0.3-1.4,0.7c0,0.4,0.6,0.7,1.4,0.7h8.5c0.8,0,1.4-0.3,1.4-0.7C27,24.5,26.4,24.2,25.6,24.2L25.6,24.2z
		 M33.3,3.6H9.3v19.1H5.8v-2.4H6c-0.1-0.4-0.2-0.8-0.2-1.2V3.6c0-2,1.6-3.6,3.6-3.6h23.9c2,0,3.6,1.6,3.6,3.6v15.6
		c0,0.4-0.1,0.8-0.2,1.2h0.2v2.4h-3.6L33.3,3.6L33.3,3.6z"/>
</g>
<g>
</g>
<g>
</g>
<g>
</g>
<g>
</g>
<g>
</g>
<g>
</g>
<g>
</g>
<g>
</g>
<g>
</g>
<g>
</g>
<g>
</g>
<g>
</g>
<g>
</g>
<g>
</g>
<g>
</g>
<g>
</g>
</svg>
